<?xml version="1.0" standalone="no"?>
<!DOCTYPE svg PUBLIC "-//W3C//DTD SVG 1.1//EN" "http://www.w3.org/Graphics/SVG/1.1/DTD/svg11.dtd" >
<svg xmlns="http://www.w3.org/2000/svg">
<metadata>
Created by FontPrep 20130207 at Thu Apr 23 15:21:04 2015
 By Koen Dirk van Esterik
Copyright (c) 1999, OurType. All rights reserved.
</metadata>
<defs>
<font id="1eb8cd40a299ca61a43e12b310a0b654" horiz-adv-x='1024' >
  <font-face 
    font-family="Arnhem-Blond"
    font-weight="400"
    font-stretch="normal"
    units-per-em="2048"
    panose-1="2 0 6 3 8 0 0 2 0 4"
    ascent="1638"
    descent="-410"
    x-height="934"
    cap-height="1270"
    bbox="-662 -557 2165 1788"
    underline-thickness="20"
    underline-position="-123"
    unicode-range="U+0020-FB02"
  />
<missing-glyph horiz-adv-x="1024" 
 />
    <glyph glyph-name=".notdef" horiz-adv-x="1024" 
 />
    <glyph glyph-name=".null" horiz-adv-x="0" 
 />
    <glyph glyph-name="nonmarkingreturn" horiz-adv-x="1024" 
 />
    <glyph glyph-name="space" unicode=" " horiz-adv-x="410" 
 />
    <glyph glyph-name="exclam" unicode="!" horiz-adv-x="547" 
d="M158 1253q54 50 120 50t119 -50q-64 -379 -77 -608.5t-13 -269.5h-59q0 150 -34.5 442.5t-55.5 435.5zM188 11q-36 38 -36 78q0 66 35 103t75 37q66 0 99.5 -37t33.5 -76q0 -40 -9 -63.5t-34.5 -51.5t-76.5 -28t-87 38z" />
    <glyph glyph-name="quotedbl" unicode="&#x22;" horiz-adv-x="807" 
d="M457 1253q49 50 115 50t116 -50q-70 -163 -96 -346h-39q-6 87 -43 198.5t-53 147.5zM119 1253q49 50 115 50t116 -50q-70 -163 -96 -346h-39q-6 87 -43 198.5t-53 147.5z" />
    <glyph glyph-name="numbersign" unicode="#" horiz-adv-x="1526" 
d="M264 -221l164 487h-291l29 86h291l108 320h-325l28 86h326l164 489l84 -30l-152 -459h320l161 487l84 -31l-153 -456h311l-29 -86h-311l-106 -320h360l-29 -86h-360l-174 -516l-84 29l164 487h-320l-172 -516zM872 352l107 320h-315l-111 -320h319z" />
    <glyph glyph-name="dollar" unicode="$" 
d="M881.5 567q70.5 -82 70.5 -228t-110 -246.5t-275 -115.5v-163h-43v161q-197 0 -311 66l-37 -66h-45v9l2 34q2 90 -10 426h59q6 -32 20.5 -120t49.5 -158q43 -58 100.5 -89.5t155.5 -31.5h16v530l-92 39q-266 120 -266 351q0 144 100.5 236t257.5 104v118h43v-118
q154 -7 254 -72l43 61h43l13 -399h-52q-25 133 -90 233q-95 100 -211 109v-475l148 -62q96 -51 166.5 -133zM498 795q22 -11 26 -11v451q-143 -13 -172.5 -91.5t-29.5 -143.5q0 -140 176 -205zM780 297q0 139 -84 188.5t-129 67.5v-502q104 20 158.5 86t54.5 160z" />
    <glyph glyph-name="percent" unicode="%" horiz-adv-x="1477" 
d="M137 725q-94 96 -94 236q0 139 93 234t226.5 95t226.5 -95t93 -234t-95 -235.5t-226 -96.5q-130 0 -224 96zM287 33l846 1263l67 -61l-840 -1260zM1116 -20q-64 0 -122.5 25.5t-102 69.5t-69 105t-25.5 131t25 130.5t68.5 104.5t101.5 69.5t124 25.5t124.5 -25.5
t102 -69.5t68.5 -104.5t25 -130.5t-26 -131t-70 -105t-102 -69.5t-122 -25.5zM515 782q58 69 58 176t-58 175.5t-151 68.5q-94 0 -154 -68t-60 -176q0 -107 60.5 -176t153.5 -69t151 69zM1327 309q0 107 -58 175.5t-152 68.5t-154 -68t-60 -175t60.5 -177t152.5 -70
q93 0 152 69.5t59 176.5z" />
    <glyph glyph-name="ampersand" unicode="&#x26;" horiz-adv-x="1196" 
d="M33 319q0 211 270 338l-98 111q-92 114 -92 213q0 170 106.5 246t249.5 76t227 -79.5t84 -193.5q0 -199 -278 -350l332 -352q61 115 61 295q0 19 -8.5 24t-46.5 15l-68 16v53h361v-53l-107 -23q-17 -5 -25 -13t-8 -34q0 -202 -100 -346l119 -125q52 -62 159 -98v-39
q-180 -2 -226.5 9.5t-76 32.5t-65.5 58l-21 23q-161 -143 -356 -143t-294 96t-99 243zM621 1030q0 199 -168 199q-117 0 -142.5 -81t-25.5 -132q0 -92 84 -189l84 -92q81 54 124.5 121.5t43.5 173.5zM219 365q0 -194 101.5 -228.5t169.5 -34.5q128 0 233 88l-363 406
q-141 -102 -141 -231z" />
    <glyph glyph-name="quotesingle" unicode="'" horiz-adv-x="473" 
d="M121 1253q49 50 115 50t116 -50q-70 -163 -96 -346h-39q-6 87 -43 198.5t-53 147.5z" />
    <glyph glyph-name="parenleft" unicode="(" horiz-adv-x="635" 
d="M569 -311q-204 0 -341.5 202.5t-137.5 557.5v186q0 355 138 564.5t341 209.5v-59q-151 0 -239 -191.5t-88 -527.5v-162q0 -338 88 -529.5t239 -191.5v-59z" />
    <glyph glyph-name="parenright" unicode=")" horiz-adv-x="635" 
d="M63 -252q151 0 240.5 201.5t89.5 539.5v127q0 339 -89.5 536.5t-240.5 197.5v59q206 0 344 -208.5t138 -563.5v-148q0 -358 -103.5 -523t-191.5 -221t-187 -56v59z" />
    <glyph glyph-name="asterisk" unicode="*" horiz-adv-x="961" 
d="M459 838l-223 -195l-27 23l156 252l-283 96l6 35l297 -7l-59 289l34 15l142 -261l221 195l29 -23l-156 -251l283 -95l-9 -37l-295 7l60 -289l-35 -12z" />
    <glyph glyph-name="plus" unicode="+" 
d="M489 449h-417v92h417v469h99v-469h418v-92h-418v-515h-99v515z" />
    <glyph glyph-name="comma" unicode="," horiz-adv-x="543" 
d="M289 -25q-68 0 -107 38.5t-39 84.5q0 75 40.5 115.5t101.5 40.5t101 -45t40 -135q0 -158 -64 -277.5t-133 -173.5h-100q105 105 132.5 199t27.5 153z" />
    <glyph glyph-name="hyphen" unicode="-" horiz-adv-x="582" 
d="M57 662h467v-140h-467v140z" />
    <glyph glyph-name="hyphen" unicode="&#xad;" horiz-adv-x="582" 
d="M57 662h467v-140h-467v140z" />
    <glyph glyph-name="period" unicode="." horiz-adv-x="543" 
d="M180.5 21q-39.5 41 -39.5 84q0 73 40 113t81 40q68 0 107 -40.5t39 -82.5q0 -43 -10.5 -69t-39 -56t-83.5 -30t-94.5 41z" />
    <glyph glyph-name="slash" unicode="/" horiz-adv-x="631" 
d="M492 1411h96l-449 -1565h-96z" />
    <glyph glyph-name="zero" unicode="0" 
d="M196.5 124q-128.5 144 -128.5 382q0 237 128.5 385.5t348.5 148.5t344.5 -141t124.5 -380t-128 -389t-344.5 -150t-345 144zM544 55q120 0 187.5 120.5t67.5 336.5q0 318 -97 385.5t-157 67.5q-120 0 -191 -119t-71 -334q0 -336 101.5 -396.5t159.5 -60.5z" />
    <glyph glyph-name="one" unicode="1" 
d="M502 158v671h-25l-280 -104l-17 59l27 12q328 152 432 244h53v-882q0 -39 13.5 -52.5t52.5 -17.5l205 -27v-61h-750v61l227 29q40 4 51 17.5t11 50.5z" />
    <glyph glyph-name="two" unicode="2" 
d="M182 741q0 116 93.5 207.5t253.5 91.5t245.5 -78t85.5 -223q0 -253 -360 -497l-138 -90h422q38 0 56 20l129 162h43q-46 -85 -68 -202.5t-22 -131.5h-775v47l238 219q120 111 187 217t67 227q0 122 -48.5 170t-139.5 48t-150 -58t-59 -170v-18q0 -9 2 -18h-54
q-8 28 -8 77z" />
    <glyph glyph-name="three" unicode="3" 
d="M360 375q345 39 345 317q0 166 -82.5 204t-132.5 38q-107 0 -180.5 -59t-73.5 -181h-54q0 145 94 245.5t256 100.5t255.5 -85.5t93.5 -207.5t-74 -214.5t-178 -133.5q303 -59 303 -327q0 -189 -133.5 -326t-341.5 -137q-111 0 -228.5 49.5t-117.5 142.5q0 113 104 113
q72 0 92.5 -49.5t22.5 -73.5l6 -80q50 -39 120 -39q133 0 204 99.5t71 252.5t-74.5 226.5t-191.5 73.5q-54 0 -105 -21v72z" />
    <glyph glyph-name="four" unicode="4" 
d="M645 0h-575v115l567 868q56 7 109 28.5t63 28.5h33v-890h213l-31 -150h-182v-391h-197v391zM645 150v716l-471 -716h471z" />
    <glyph glyph-name="five" unicode="5" 
d="M524 -395q-53 0 -90.5 4t-102.5 18t-127.5 59t-62.5 104q0 60 29.5 88t65.5 28q63 0 92.5 -35.5t31.5 -87.5l7 -80q53 -33 128 -33q136 0 203.5 117t67.5 273t-79 257t-193 101t-173 -34t-71 -44h-39q3 20 9.5 59t35 226t25.5 391h665l-49 -176h-543q0 -134 -22 -252.5
t-29 -145.5q98 60 227 60q232 0 335.5 -124t103.5 -303q0 -180 -101 -296.5t-196 -145t-148 -28.5z" />
    <glyph glyph-name="six" unicode="6" 
d="M326 666q110 141 312 141q62 0 134 -26.5t154 -105.5t82 -265t-117 -311.5t-311 -125.5t-322.5 133t-128.5 470t173.5 550t410.5 213q141 0 233 -59v-70q-75 41 -177 41t-171.5 -39.5t-156 -157t-115.5 -388.5zM563 709q-139 0 -244 -123v-54q0 -491 269 -491
q107 0 169 99.5t62 248.5q0 228 -97.5 274t-158.5 46z" />
    <glyph glyph-name="seven" unicode="7" 
d="M1008 1016v-33l-437 -942q-112 -233 -134.5 -324t-22.5 -110h-217l667 1233h-741l41 176h844z" />
    <glyph glyph-name="eight" unicode="8" 
d="M125 317q0 233 272 340q-98 48 -166.5 120t-68.5 224t120 242t277 90q200 0 292.5 -97t92.5 -214q0 -200 -110.5 -258t-155.5 -76q187 -61 231.5 -170.5t44.5 -191.5t-40.5 -152.5t-132 -135.5t-263.5 -65t-282.5 95t-110.5 249zM717.5 1193.5q-54.5 74.5 -155.5 74.5
t-159.5 -70.5t-58.5 -164.5q0 -93 20.5 -145t56.5 -84.5t85 -52t106 -40.5q88 53 124 113t36 178q0 117 -54.5 191.5zM693 117.5q63 76.5 63 201.5q0 189 -125 240.5t-187 69.5q-80 -55 -110.5 -122t-30.5 -157t17.5 -140.5t66.5 -109.5t146 -59t160 76.5z" />
    <glyph glyph-name="nine" unicode="9" 
d="M524 1040q457 0 457 -575q0 -332 -131.5 -541t-263.5 -262t-235 -53t-169.5 24t-87.5 41v64q88 -45 195 -45t169 28.5t131 97.5t122.5 214.5t74.5 308.5q-121 -133 -294 -133t-283.5 106.5t-110.5 296t116 309t310 119.5zM791 431v26q0 311 -77 412.5t-191 101.5
t-177 -96t-63 -252q0 -218 101.5 -264t173.5 -46q139 0 235 103q-2 -2 -2 15z" />
    <glyph glyph-name="colon" unicode=":" horiz-adv-x="543" 
d="M180.5 645q-39.5 41 -39.5 83q0 72 39.5 112.5t81.5 40.5q68 0 107 -41t39 -84q0 -42 -10.5 -67t-39 -55t-83.5 -30t-94.5 41zM180.5 21q-39.5 41 -39.5 84q0 73 40 113t81 40q68 0 107 -40.5t39 -82.5q0 -43 -10.5 -69t-39 -56t-83.5 -30t-94.5 41z" />
    <glyph glyph-name="semicolon" unicode=";" horiz-adv-x="543" 
d="M180.5 643q-39.5 41 -39.5 84q0 71 39.5 112.5t80.5 41.5q69 0 108 -42t39 -84t-10.5 -67.5t-39 -55.5t-83.5 -30t-94.5 41zM289 -25q-68 0 -107 38.5t-39 84.5q0 75 40.5 115.5t101.5 40.5t101 -45t40 -135q0 -158 -64 -277.5t-133 -173.5h-100q105 105 132.5 199
t27.5 153z" />
    <glyph glyph-name="semicolon" unicode="&#x37e;" horiz-adv-x="543" 
d="M180.5 643q-39.5 41 -39.5 84q0 71 39.5 112.5t80.5 41.5q69 0 108 -42t39 -84t-10.5 -67.5t-39 -55.5t-83.5 -30t-94.5 41zM289 -25q-68 0 -107 38.5t-39 84.5q0 75 40.5 115.5t101.5 40.5t101 -45t40 -135q0 -158 -64 -277.5t-133 -173.5h-100q105 105 132.5 199
t27.5 153z" />
    <glyph glyph-name="less" unicode="&#x3c;" 
d="M29 494l929 438l35 -80l-665 -317l-121 -46l119 -43l667 -311l-35 -78z" />
    <glyph glyph-name="equal" unicode="=" 
d="M72 741h934v-94h-934v94zM72 340h934v-94h-934v94z" />
    <glyph glyph-name="greater" unicode="&#x3e;" 
d="M72 135l669 314l117 40l-123 46l-663 317l34 80l930 -438l-930 -439z" />
    <glyph glyph-name="question" unicode="?" horiz-adv-x="942" 
d="M428 500q0 -35 27 -99h-140q-17 174 72.5 226t120.5 73q71 58 104 125t33 177q0 111 -53.5 165t-173.5 54q-63 0 -135 -47q20 -56 20 -88q0 -56 -26 -87.5t-74 -31.5q-76 0 -76 83t104 152l37 29q63 45 134 58.5t120 13.5t108 -18t124 -73.5t65 -195.5
q0 -185 -118 -267.5t-177 -123.5q-96 -65 -96 -125zM283 11.5q-35 38.5 -35 77.5q0 65 34 102.5t74 37.5q67 0 101.5 -36.5t34.5 -76.5t-9 -63.5t-35.5 -51.5t-77.5 -28q-52 0 -87 38.5z" />
    <glyph glyph-name="at" unicode="@" horiz-adv-x="1929" 
d="M1360 -82q-232 0 -262 219q-107 -162 -291 -162q-127 0 -194.5 64t-67.5 178q0 168 159.5 221.5t225.5 71.5l166 43v113q0 229 -201 229q-93 0 -156 -41l33 -51q21 -36 21 -66q0 -53 -27.5 -87t-81.5 -34q-100 0 -100 111q0 86 121 162l49 35q85 61 209 61
q315 0 315 -295v-450q0 -63 2 -107.5t26 -85.5t139 -41t197 136t82 317q0 359 -204.5 561.5t-552.5 202.5t-553 -215.5t-205 -540.5t178 -505.5t327.5 -220.5t258.5 -40q229 0 385 90l28 -45q-192 -123 -432 -123t-439 113.5t-309 306.5t-110 431t120.5 428.5t321 295.5
t427.5 105q357 0 561.5 -177t253.5 -350.5t49 -277.5t-14.5 -170.5t-57.5 -160t-149.5 -171.5t-247.5 -78zM867 88q150 0 229 115v284l-164 -47q-207 -65 -207 -194q0 -77 42 -117.5t100 -40.5z" />
    <glyph glyph-name="A" unicode="A" horiz-adv-x="1237" 
d="M1231 0h-496v57l109 25q25 6 33.5 17t-0.5 36l-91 240h-464l-89 -248q-8 -25 1.5 -32.5t27.5 -12.5l109 -25v-57h-400v57l97 25q35 9 49 47l444 1174h103l440 -1178q11 -33 49 -45l78 -23v-57zM754 465l-207 555l-199 -555h406z" />
    <glyph glyph-name="B" unicode="B" horiz-adv-x="1282" 
d="M252 125v1018q0 21 -9 29t-44 14l-121 24v60h596q210 0 330 -83.5t120 -230.5q0 -103 -75 -180t-185 -112q217 -49 266.5 -154.5t49.5 -186.5t-77.5 -202t-389.5 -121h-635v59l119 21q50 11 52.5 22.5t2.5 22.5zM588 1200q-75 0 -121 -16v-496h131q235 0 277.5 95.5
t42.5 168.5q0 248 -287 248h-43zM668 70q143 0 216.5 71t73.5 204t-103.5 204.5t-260.5 71.5h-127v-535q61 -16 141 -16h60z" />
    <glyph glyph-name="C" unicode="C" horiz-adv-x="1364" 
d="M812 1303q177 0 321 -64l38 51h43l25 -440h-55q-23 130 -52.5 199t-44.5 90q-109 98 -290 98q-325 0 -401.5 -215.5t-76.5 -360.5q0 -278 124.5 -446t320.5 -168q116 0 190.5 35.5t96.5 50.5q49 52 86.5 159.5t46.5 139.5h57l-72 -381q-168 -76 -409 -76
q-321 0 -500.5 193.5t-179.5 475.5t200.5 470.5t531.5 188.5z" />
    <glyph glyph-name="D" unicode="D" horiz-adv-x="1464" 
d="M250 125v1018q0 21 -9 28t-44 15l-121 24v60h616q295 0 497 -164.5t202 -447.5t-182 -470.5t-472 -187.5h-661v59l119 25q50 8 52.5 19t2.5 22zM639 68h49q213 0 343 155t130 420q0 388 -181 475.5t-325 87.5h-47q-81 0 -143 -26v-1090q72 -22 174 -22z" />
    <glyph glyph-name="E" unicode="E" horiz-adv-x="1241" 
d="M702 72q116 0 181.5 23.5t87.5 39.5q67 79 121 264h55l-60 -399h-1011v59l119 25q50 8 52.5 19t2.5 22v1018q0 21 -9 29t-44 14l-121 24v60h817q98 0 164 22l37 -407h-56q-48 186 -96 250q-59 38 -155.5 49.5t-143.5 11.5h-18q-96 0 -160 -12v-482h246q62 38 85 101.5
t27 87.5h41v-467h-41q-31 142 -112 197h-246v-535q95 -14 190 -14h47z" />
    <glyph glyph-name="F" unicode="F" horiz-adv-x="1143" 
d="M643 1196q-94 0 -166 -18v-500h273q51 38 75 101t27 87h45v-481h-45q-23 99 -55 150t-47 65h-273v-473q0 -22 8 -26t45 -11l168 -33v-57h-606v59l119 25q50 8 52.5 19t2.5 22v1018q0 21 -8.5 27t-44.5 14l-141 26v60h766q134 0 217 22l37 -407h-56q-40 175 -96 250
q-60 39 -146.5 50t-131.5 11h-19z" />
    <glyph glyph-name="G" unicode="G" horiz-adv-x="1425" 
d="M829 1303q186 0 328 -68l39 53h43l25 -442h-56q-20 116 -53 193.5t-47 99.5q-106 94 -305 94q-235 0 -362.5 -155t-127.5 -427t130.5 -438t324.5 -166q125 0 190 33t84 51v365q0 21 -9.5 31t-41.5 18l-145 35v55h491v-47l-34 -15q-29 -12 -41.5 -24t-12.5 -43v-379
l11 -39q-134 -71 -290.5 -89.5t-248.5 -18.5t-180 24.5t-196.5 91t-190.5 222.5t-82 318q0 161 53 279t150 204.5t232.5 135t321.5 48.5z" />
    <glyph glyph-name="H" unicode="H" horiz-adv-x="1604" 
d="M250 125v1018q0 22 -8 28.5t-45 14.5l-121 24v60h547v-60l-105 -24q-48 -11 -51.5 -21.5t-3.5 -21.5v-436h676v436q0 31 -17.5 37t-36.5 10l-104 20v60h547v-60l-119 -22q-35 -6 -45 -15t-10 -30v-1018q0 -22 13.5 -28.5t39.5 -12.5l121 -29v-55h-547v55l102 25
q51 13 53.5 23.5t2.5 21.5v485h-676v-485q0 -23 9 -30t44 -15l107 -21v-59h-547v59l119 23q50 8 52.5 20t2.5 23z" />
    <glyph glyph-name="I" unicode="I" horiz-adv-x="729" 
d="M258 125v1018q0 22 -8 28.5t-45 14.5l-121 24v60h561v-60l-119 -24q-48 -11 -51.5 -21.5t-3.5 -21.5v-1018q0 -22 8 -28.5t45 -12.5l121 -25v-59h-561v59l119 23q50 8 52.5 20t2.5 23z" />
    <glyph glyph-name="J" unicode="J" horiz-adv-x="729" 
d="M82 -414q-193 0 -193 133q0 50 35 83.5t76 33.5q74 0 100.5 -58.5t-2.5 -129.5q72 10 116 77.5t44 241.5v1176q0 21 -11 28t-42 13l-137 24v62h577v-62l-119 -24q-49 -11 -52 -20.5t-3 -20.5v-1120q0 -226 -91.5 -308.5t-166 -105.5t-131.5 -23z" />
    <glyph glyph-name="K" unicode="K" horiz-adv-x="1358" 
d="M870 1270h449v-58l-74 -16q-71 -16 -123 -66l-422 -395l310 -405q139 -182 245 -244l99 -29v-57h-330q-91 71 -240 272l-252 349q-9 16 -27.5 17.5t-19.5 2.5v14q38 19 66 43l430 439q40 40 -27 57l-84 18v58zM250 125v1018q0 22 -8 28.5t-45 14.5l-121 24v60h561v-60
l-117 -24q-35 -6 -45 -14t-10 -29v-1018q0 -30 16.5 -34t34.5 -7l121 -25v-59h-561v59l119 23q50 8 52.5 20t2.5 23z" />
    <glyph glyph-name="L" unicode="L" horiz-adv-x="1165" 
d="M629 72h35q133 0 196 25.5t78 37.5q42 46 98 197l41 108h56l-101 -440h-956v59l117 23q29 6 42 13.5t13 29.5v1018q0 21 -8.5 27t-44.5 14l-121 26v60h581v-58l-139 -26q-48 -11 -50.5 -21t-2.5 -20v-1055q63 -18 166 -18z" />
    <glyph glyph-name="M" unicode="M" horiz-adv-x="1833" 
d="M254 332v811q0 19 -12.5 28.5t-51.5 16.5l-108 24v60h371l460 -946l465 944h377v-56l-119 -26q-46 -11 -48.5 -22t-2.5 -21v-1020q0 -23 9 -30t44 -13l117 -23v-59h-541v59l99 21q35 8 45 15.5t10 29.5v919l-512 -1042h-8l-496 1010v-678q0 -20 0.5 -46.5t1 -55
t4.5 -71.5q3 -44 11 -62t32 -21l142 -21v-57h-482v57l138 21q29 5 37 20.5t10 35.5t3 45.5t3 61.5t2 91z" />
    <glyph glyph-name="N" unicode="N" horiz-adv-x="1485" 
d="M328 338q0 -218 15 -235.5t32 -20.5l168 -25v-57h-484v57l125 21q19 3 26.5 12t9.5 32q10 97 11 214v807q0 23 -9.5 30t-53.5 15l-96 22v60h338l749 -926v586q0 70 -2 107.5t-3.5 61t-3.5 45.5t-9.5 31.5t-26.5 12.5l-172 24v58h483v-58l-122 -20q-16 -3 -28.5 -10.5
t-14.5 -41.5q-7 -121 -7 -208v-957h-45l-880 1086v-723z" />
    <glyph glyph-name="O" unicode="O" horiz-adv-x="1479" 
d="M738 -27q-96 0 -183 25t-198 91.5t-197 223.5t-86 315q0 297 188 486t475 189t442.5 -154t189.5 -280.5t34 -217.5t-22.5 -176.5t-64 -161t-100.5 -138t-133 -107.5t-161.5 -70t-183.5 -25zM786.5 49q163.5 0 270 173t106.5 429q0 396 -155.5 487t-269.5 91
q-214 0 -318.5 -163t-104.5 -415q0 -417 154 -509.5t317.5 -92.5z" />
    <glyph glyph-name="P" unicode="P" horiz-adv-x="1190" 
d="M463 125q0 -23 9 -31t40 -12l158 -25v-57h-596v59l119 25q40 9 47.5 14t7.5 27v1018q0 25 -11 32t-42 13l-121 26v56h579q217 0 358.5 -88t141.5 -264.5t-121.5 -288t-352.5 -111.5q-121 0 -216 17v-410zM594 1200q-83 0 -131 -16v-596h102q190 0 283.5 80t93.5 232
t-77.5 226t-241.5 74h-29z" />
    <glyph glyph-name="Q" unicode="Q" horiz-adv-x="1479" 
d="M737 -27q-186 0 -378 115.5t-238.5 293.5t-46.5 291t49.5 232t188 258.5t425.5 139.5t476.5 -188.5t189.5 -476.5q0 -104 -36 -210t-137 -241t-325 -193q222 -301 283 -315.5t88.5 -20.5t69.5 -16v-56h-297q-118 82 -308 387h-4zM786.5 49q163.5 0 270 173t106.5 429
q0 396 -155.5 487t-269.5 91q-214 0 -318.5 -163t-104.5 -415q0 -417 154 -509.5t317.5 -92.5z" />
    <glyph glyph-name="R" unicode="R" horiz-adv-x="1329" 
d="M248 125v1018q0 25 -12 32t-41 13l-121 26v56h594q215 0 350 -86t135 -248q0 -121 -96 -217t-230 -125q41 -24 76 -77.5t60 -92.5l127 -195q65 -99 129 -139l122 -33v-57h-311q-60 39 -176 227l-192 324h-199v-426q0 -23 8.5 -30t40.5 -13l123 -25v-57h-561v59l119 25
q40 9 47.5 14t7.5 27zM588 1200q-45 0 -125 -20v-551h158q158 0 234.5 79.5t76.5 219.5t-72 206t-225 66h-47z" />
    <glyph glyph-name="S" unicode="S" horiz-adv-x="1063" 
d="M756 295q0 148 -88 195t-129 63l-127 53q-295 118 -295 357q0 151 124.5 245.5t292.5 94.5q167 0 287 -70l43 59h43l13 -401h-56q-26 138 -90 237q-102 107 -243 107q-142 0 -180 -79t-38 -129q0 -91 41.5 -138t134.5 -88l205 -92q122 -57 198.5 -137.5t76.5 -217.5
q0 -173 -133.5 -276t-333.5 -103t-320 64l-37 -64h-43q6 87 1.5 246t-9.5 223h62q38 -205 77 -282q90 -117 235 -117q137 0 212.5 70t75.5 180z" />
    <glyph glyph-name="T" unicode="T" horiz-adv-x="1239" 
d="M223 1270h813q115 0 168 24l15 -407h-58q-33 155 -98 260q-74 45 -136 48t-98 3h-104v-1075q0 -22 11 -28t42 -11l142 -25v-59h-601v59l138 25q50 8 52.5 18t2.5 21v1075h-84q-94 0 -161 -16t-93 -33q-53 -74 -98 -260h-56l15 407q67 -26 188 -26z" />
    <glyph glyph-name="U" unicode="U" horiz-adv-x="1438" 
d="M217 475v670q0 29 -17 35t-34 10l-100 22v58h540v-58l-123 -24q-34 -6 -42.5 -15t-8.5 -30v-668q0 -191 89.5 -296t238.5 -105q188 0 278 115.5t90 304.5v651q0 18 -8.5 26.5t-42.5 14.5l-125 26v58h420v-58l-84 -20q-47 -11 -50 -24t-3 -23v-651q0 -246 -133.5 -383.5
t-366.5 -137.5t-375.5 128t-142.5 374z" />
    <glyph glyph-name="V" unicode="V" horiz-adv-x="1253" 
d="M-20 1270h505v-60l-112 -24q-31 -6 -42.5 -15.5t-0.5 -35.5l346 -885l352 891q8 20 0 30.5t-43 18.5l-94 22v58h383v-58l-64 -20q-18 -6 -34 -15.5t-27 -35.5l-498 -1164h-84l-463 1164q-10 30 -32 38t-37 13l-55 18v60z" />
    <glyph glyph-name="W" unicode="W" horiz-adv-x="1927" 
d="M-20 1270h499v-58l-106 -18q-62 -11 -47 -51l295 -885l294 762l-47 123q-9 23 -24.5 32.5t-44.5 18.5l-60 18v58h482v-58l-99 -22q-32 -8 -38.5 -20.5t1.5 -32.5l324 -873l295 873q8 24 -5 36t-57 21l-94 18v58h400v-58l-62 -16q-21 -6 -36.5 -15t-26.5 -38l-439 -1166
h-81l-332 895l-381 -895h-84l-400 1166q-11 29 -31.5 38t-41.5 15l-53 16v58z" />
    <glyph glyph-name="X" unicode="X" horiz-adv-x="1272" 
d="M18 1270h508v-58l-88 -16q-71 -12 -41 -53l273 -377l260 364q15 23 3.5 35t-42.5 21l-100 28v56h434v-56l-82 -22q-47 -13 -76 -49l-344 -447l399 -540q25 -32 44 -51.5t48 -28.5l58 -17v-59h-510v59l96 21q28 6 35.5 18t-12.5 37l-295 406l-287 -394q-30 -43 41 -63
l92 -27v-57h-432v57l76 21q51 13 78 49l378 489l-395 527q-31 39 -65 51l-54 18v58z" />
    <glyph glyph-name="Y" unicode="Y" horiz-adv-x="1237" 
d="M522 129v397l-405 613q-23 34 -36.5 40.5t-23.5 10.5l-57 20v60h494v-60l-97 -20q-31 -6 -38.5 -18.5t1.5 -24.5l328 -494l297 486q17 28 2.5 38t-59.5 19l-84 16v58h395v-58l-55 -14q-47 -11 -76 -55l-375 -578v-436q0 -22 7.5 -27t45.5 -14l148 -29v-59h-612v59l145 29
q28 6 41.5 14t13.5 27z" />
    <glyph glyph-name="Z" unicode="Z" horiz-adv-x="1153" 
d="M297 1270h799v-35l-752 -1147h293q219 0 293 31q91 106 145 264h55l-67 -383h-993v39l753 1147h-282q-226 0 -283 -21q-63 -82 -106 -256h-56l23 381q70 -20 178 -20z" />
    <glyph glyph-name="bracketleft" unicode="[" horiz-adv-x="657" 
d="M127 1409h461v-106l-326 24v-1587l330 27v-111h-465v1753z" />
    <glyph glyph-name="backslash" unicode="\" horiz-adv-x="631" 
d="M43 1411h96l449 -1565h-96z" />
    <glyph glyph-name="bracketright" unicode="]" horiz-adv-x="655" 
d="M63 1409h463v-1753h-458v106l325 -24v1587l-330 -25v109z" />
    <glyph glyph-name="asciicircum" unicode="^" horiz-adv-x="999" 
d="M485 1458h29l338 -426h-57l-293 258h-4l-293 -258h-58z" />
    <glyph glyph-name="underscore" unicode="_" horiz-adv-x="1024" 
d="M0 -162h1024v-98h-1024v98z" />
    <glyph glyph-name="grave" unicode="`" horiz-adv-x="1124" 
d="M274 1433q0 28 19 48t42 20q36 0 68.5 -28t45.5 -60l135 -299h-47l-209 211q-54 54 -54 108z" />
    <glyph glyph-name="a" unicode="a" horiz-adv-x="1028" 
d="M350 -25q-128 0 -200 64t-72 178q0 169 161.5 222t231.5 71l180 47v109q0 119 -58 174t-158 55t-163 -41l33 -51q21 -36 21 -66q0 -53 -27.5 -87t-78.5 -34q-50 0 -75.5 30t-25.5 70q0 63 33.5 102.5t85.5 70.5l59 37q98 59 209 59q328 0 328 -295v-436q0 -102 14 -158
q48 -20 151 -20v-41q-96 -60 -199 -60t-123 62.5t-24 99.5q-107 -162 -303 -162zM258 244q0 -156 172 -156q105 0 156.5 48t64.5 67v289l-178 -52q-95 -26 -155 -70.5t-60 -125.5z" />
    <glyph glyph-name="b" unicode="b" horiz-adv-x="1192" 
d="M197 54v1160q0 64 -10.5 79t-59.5 36l-66 29v41l273 49h61q-16 -112 -16 -295v-350q73 122 167 152t168 30t148 -33.5t126 -96t80 -151.5t28 -258.5t-133.5 -320t-348.5 -150.5q-129 0 -189 33.5t-81 61.5l-123 -105h-37q13 61 13 89zM596 63q58 0 179.5 59.5
t121.5 346.5t-111.5 340t-181.5 53q-147 0 -225 -108v-490q0 -86 57.5 -143.5t159.5 -57.5z" />
    <glyph glyph-name="c" unicode="c" horiz-adv-x="965" 
d="M508 -25q-190 0 -306 143.5t-116 358.5t135.5 361.5t339.5 146.5q162 0 237.5 -91t75.5 -167t-43 -93.5t-65 -17.5q-44 0 -76.5 33t-32.5 74t27 84l27 43q-53 61 -139 61q-147 0 -222.5 -118t-75.5 -287t91.5 -282t241.5 -113q151 0 239 129l22 -23q-108 -242 -360 -242z
" />
    <glyph glyph-name="d" unicode="d" horiz-adv-x="1190" 
d="M809 139q-117 -164 -308 -164q-190 0 -297.5 140t-107.5 358t136.5 365t345.5 147q105 0 159 -36.5t72 -57.5v348q0 56 -11.5 71t-76.5 33l-78 21v39l303 45h62q-15 -112 -15 -295v-1030q0 -24 8.5 -30.5t47.5 -16.5l88 -19v-43l-328 -49v174zM630 897
q-159 0 -247 -112.5t-88 -290.5q0 -292 121.5 -343t171.5 -51q76 0 133 28t88 67v649q-91 53 -179 53z" />
    <glyph glyph-name="e" unicode="e" horiz-adv-x="1006" 
d="M618 111q162 0 261 129l20 -21q-124 -244 -383 -244q-195 0 -311.5 142t-118.5 362q2 220 130.5 363t334.5 143q155 0 255.5 -88t100.5 -240l-12 -110l-623 14v-39q0 -205 92 -308t254 -103zM723 694q0 109 -48.5 164t-120.5 55q-124 0 -193 -85.5t-80 -206.5l432 18
q10 18 10 55z" />
    <glyph glyph-name="f" unicode="f" horiz-adv-x="686" 
d="M219 106v732h-151l34 96h119v59q0 222 112.5 338.5t309.5 116.5q117 0 143.5 -50t26.5 -81q0 -55 -33 -84t-64 -29q-64 0 -102 44.5t-16 135.5q-77 0 -134.5 -71t-57.5 -221v-158h241v-96h-241v-717q0 -39 57 -49l141 -25v-47h-526v47l76 19q31 8 48 14t17 26z" />
    <glyph glyph-name="g" unicode="g" horiz-adv-x="1055" 
d="M838 686v-37q0 -146 -105 -245t-266 -99q-44 0 -91.5 -35.5t-47.5 -79.5q0 -43 22.5 -59.5t67.5 -21.5l274 -23q188 -16 227 -92t39 -130t-23.5 -105t-84 -114t-194.5 -110t-237 -47q-181 0 -286.5 62t-105.5 162q0 101 93.5 160.5t215.5 90.5q-15 0 -21 6
q-135 40 -135 143q0 102 84 146t117 59q-193 32 -241 143.5t-48 189.5q0 150 114 242.5t261 92.5q188 0 258 -84t88 -129q22 150 78.5 181.5t96.5 31.5t68.5 -28.5t28.5 -70.5t-28.5 -71t-58.5 -29q-44 0 -66 12t-43 29l-23 23q-28 -34 -28 -164zM468 373q88 0 141 74
t53 202q0 190 -76 227t-141.5 37t-120 -69t-54.5 -194t55 -201t143 -76zM207 -250q0 -176 264 -176q214 0 268 86.5t54 136.5t-32 89.5t-159 52.5l-219 14q-80 -37 -128 -78.5t-48 -124.5z" />
    <glyph glyph-name="h" unicode="h" horiz-adv-x="1225" 
d="M389 1153v-379q66 143 160.5 177t160.5 34q141 0 229.5 -84.5t88.5 -251.5v-543q0 -20 19 -27t45 -13l75 -19v-47h-467v47l78 19q57 14 61.5 22.5t4.5 17.5v488q0 206 -76 240t-130 34q-94 0 -156.5 -46.5t-92.5 -110.5v-605q0 -18 16 -24.5t48 -15.5l75 -19v-47h-467v47
l76 19q32 9 49 15.5t17 24.5v1129q0 44 -10.5 60t-47.5 30l-77 33v41l272 49h61q-12 -112 -12 -295z" />
    <glyph glyph-name="i" unicode="i" horiz-adv-x="614" 
d="M236 1229q-35 37 -35 78q0 66 35.5 103.5t71.5 37.5q59 0 94.5 -37.5t35.5 -77.5t-9.5 -63.5t-35.5 -50.5t-74 -27t-83 37zM223 113v665q0 33 -13.5 49t-70.5 39l-57 23v41l264 55h62v-872q0 -24 9 -30t21.5 -9t32.5 -8l78 -19v-47h-469v47l78 19q65 12 65 47z" />
    <glyph glyph-name="j" unicode="j" horiz-adv-x="598" 
d="M210 1229.5q-36 37.5 -36 77.5t10 63t26.5 40t38.5 27.5t58 10.5t72.5 -38t36.5 -77q0 -40 -10 -63.5t-37 -50.5t-75 -27t-84 37.5zM207 -145v917q0 35 -12 50t-72 42l-55 25v41l260 55h61v-1067q0 -207 -106.5 -310.5t-280.5 -103.5q-109 0 -135.5 52t-26.5 96t33.5 76
t75.5 32q75 0 99.5 -60.5t-5.5 -129.5q164 23 164 285z" />
    <glyph glyph-name="k" unicode="k" horiz-adv-x="1118" 
d="M387 1153v-1044q0 -20 9.5 -25t22 -8t32.5 -8l73 -21v-47h-463v47l78 19q11 3 38.5 9t27.5 31v1129q0 43 -12 59.5t-50 30.5l-73 33v41l272 49h61q-16 -112 -16 -295zM647 934h422v-47l-88 -23q-42 -11 -82 -51l-278 -242l208 -274q91 -118 150 -170.5t80 -65.5l63 -14
v-47h-252q-69 51 -174 188l-192 252q-6 11 -18 22t-21 23q-14 8 -29.5 11t-29.5 8v16q55 10 114 45l234 242q37 37 -41 59l-66 21v47z" />
    <glyph glyph-name="l" unicode="l" horiz-adv-x="602" 
d="M395 1153v-1047q0 -25 26.5 -31t37.5 -9l76 -19v-47h-467v47l75 19q11 3 38.5 9t27.5 31v1129q0 44 -10 60t-47 30l-78 33v41l272 49h62q-13 -121 -13 -295z" />
    <glyph glyph-name="m" unicode="m" horiz-adv-x="1851" 
d="M1028 764q110 213 326 213q143 0 222 -90t79 -246v-535q0 -19 11.5 -25t23.5 -8.5t28 -6.5l76 -19v-47h-463v47l76 19q11 3 38.5 9t27.5 31v480q0 127 -30.5 177.5t-71.5 73.5t-97 23q-91 0 -152.5 -54.5t-89.5 -117.5l-2 -43v-539q0 -19 9.5 -24.5t22 -8t32.5 -7.5
l77 -19v-47h-469v47l78 19q21 5 34 7.5t22.5 8t9.5 24.5v488q0 130 -26.5 179t-67 72t-92.5 23q-93 0 -151 -34t-106 -123v-602q0 -21 6.5 -28t36.5 -13l93 -17v-51h-463v47l76 19q27 6 46 12.5t19 27.5v672q0 33 -13.5 49t-42.5 28q-30 12 -52 22.5t-31 11.5v41l264 55h61
v-211q69 145 164.5 178t153.5 33q240 0 297 -221h10z" />
    <glyph glyph-name="n" unicode="n" horiz-adv-x="1241" 
d="M721 985q235 0 279 -129.5t44 -206.5v-543q0 -21 19.5 -27.5t44.5 -12.5l76 -19v-47h-467v47l78 19q21 5 34 8t22 7.5t9 24.5v488q0 125 -32 176.5t-74 74.5t-98 23q-97 0 -160.5 -47t-92.5 -110v-605q0 -21 19 -27.5t45 -12.5l76 -19v-47h-467v47l76 19q32 8 48.5 15
t16.5 25v672q0 33 -13.5 49t-70.5 39l-55 23v41l264 55h61v-211q108 211 318 211z" />
    <glyph glyph-name="o" unicode="o" horiz-adv-x="1124" 
d="M80 475q0 225 137 367.5t347 142.5t345 -138t135 -361t-136 -367t-344 -144q-213 0 -348.5 137.5t-135.5 362.5zM842 463q0 197 -74.5 322.5t-203.5 125.5t-204 -111t-75 -304t74.5 -323t200.5 -130q131 0 206.5 111.5t75.5 308.5z" />
    <glyph glyph-name="p" unicode="p" horiz-adv-x="1186" 
d="M381 803q99 182 335 182q74 0 146.5 -34t150 -129.5t77.5 -322.5q0 -226 -131 -375t-343 -149q-108 0 -163 37.5t-72 59.5v-445q0 -20 9.5 -25t53.5 -16l121 -26v-47h-510v47l78 18q55 11 60.5 22.5t5.5 22.5v1155q0 32 -14.5 47.5t-73.5 40.5l-54 23v41l262 55h62v-182z
M622 862q-162 0 -241 -114v-627q94 -58 181 -58q158 0 243.5 112.5t85.5 309.5q0 272 -108 324.5t-161 52.5z" />
    <glyph glyph-name="q" unicode="q" horiz-adv-x="1182" 
d="M803 139q-117 -164 -303 -164q-185 0 -294.5 139.5t-109.5 357.5t134.5 365.5t344.5 147.5q104 0 160.5 -36.5t73.5 -57.5l125 94h51v-1366q0 -20 15.5 -26t50.5 -15l77 -18v-47h-512v47l123 24q42 7 53 16t11 27v512zM599 100q129 0 204 95v649q-98 53 -181 53
q-154 0 -240.5 -109.5t-86.5 -293.5q0 -301 127.5 -347.5t176.5 -46.5z" />
    <glyph glyph-name="r" unicode="r" horiz-adv-x="791" 
d="M690 743q-33 74 -93 74t-119 -35.5t-75 -76.5v-590q0 -20 17.5 -29t48.5 -14l147 -25v-47h-540v47l76 19q14 4 39.5 9.5t25.5 30.5v672q0 33 -13.5 49t-70.5 39l-55 23v41l264 55h61v-223q34 96 107 159.5t156 63.5q47 0 84.5 -30t37.5 -66q0 -86 -98 -146z" />
    <glyph glyph-name="s" unicode="s" horiz-adv-x="903" 
d="M591.5 313.5q-31.5 33.5 -91.5 57.5l-162 61q-205 76 -205 270q0 125 102.5 204t235.5 79q132 0 217 -53l27 53h49v-311h-53q-12 83 -58 170q-39 51 -88.5 65.5t-80.5 14.5q-68 0 -121.5 -46t-53.5 -117t24 -109.5t83 -61.5l190 -74q203 -78 203 -260q0 -60 -60 -170.5
t-301 -110.5q-156 0 -245 58l-27 -58h-51l-10 361h53q32 -126 92 -217q80 -74 172 -74q135 0 163 60.5t28 117.5t-31.5 90.5z" />
    <glyph glyph-name="t" unicode="t" horiz-adv-x="694" 
d="M442 -25q-136 0 -204 64t-68 182v619h-113v67q26 11 62 25t67 37q30 44 62.5 132t38.5 109h65v-276h289v-94h-289v-572q0 -100 38 -140t131 -40t159 66l20 -25q-42 -69 -112 -111.5t-146 -42.5z" />
    <glyph glyph-name="u" unicode="u" horiz-adv-x="1190" 
d="M989 662v-515q0 -23 13 -31.5t42 -21.5l72 -28v-41l-309 -50v213q-22 -74 -103 -143.5t-218 -69.5t-222.5 89t-85.5 258v489q0 22 -11 29t-50 22l-70 25v47l283 22h45q-13 -165 -13 -247v-326q0 -142 44.5 -214.5t158.5 -72.5q165 0 242 154v516q0 39 -10 48.5t-23 15
t-33 14.5l-88 35v39l289 38h62q-15 -90 -15 -294z" />
    <glyph glyph-name="v" unicode="v" horiz-adv-x="887" 
d="M-33 934h391v-47l-73 -21q-34 -9 -41.5 -19t2.5 -32l227 -571l219 559q12 27 1.5 40.5t-56.5 24.5l-72 19v47h344v-47l-28 -10q-45 -16 -60 -52l-364 -827l-64 -16l-340 831q-17 46 -49 59l-37 15v47z" />
    <glyph glyph-name="w" unicode="w" horiz-adv-x="1440" 
d="M-35 934h387v-47l-69 -21q-28 -9 -37.5 -20t-1.5 -31l205 -563l223 500l-23 65q-6 22 -14.5 35.5t-34.5 19.5l-59 15v47h405v-47l-72 -21q-30 -9 -35.5 -22t1.5 -33l192 -559l217 555q10 25 0 37t-57 24l-72 19v47h342v-47l-28 -10q-37 -15 -45.5 -27.5t-14.5 -24.5
l-358 -825l-62 -18l-241 661l-287 -645l-59 -16l-312 831q-11 31 -22.5 43t-30.5 18l-37 13v47z" />
    <glyph glyph-name="x" unicode="x" horiz-adv-x="938" 
d="M20 934h297q-12 -50 -4 -63.5t15 -24.5l180 -264l137 215q25 39 17.5 53t-54.5 22l-73 15v47h370v-47l-63 -17q-47 -13 -82 -61l-215 -281l289 -424q8 -10 16 -20.5t53 -26.5l37 -10v-47h-289q14 48 5.5 62.5t-15.5 25.5l-215 309l-164 -260q-23 -41 -13 -54.5t50 -21.5
l72 -14v-47h-371v47l61 16q34 9 51.5 28t28.5 34l244 330l-258 374q-18 27 -36 34.5t-34 13.5l-37 10v47z" />
    <glyph glyph-name="y" unicode="y" horiz-adv-x="877" 
d="M-15.5 -452q-45.5 37 -45.5 96q0 58 31.5 90.5t69.5 32.5q68 0 98 -52.5t1 -124.5q84 0 170 217l82 193l-334 817q-20 46 -49 57l-39 13v47h396v-47l-76 -21q-32 -9 -39.5 -20t0.5 -31l233 -586l230 578q11 28 -1.5 39.5t-58.5 21.5l-73 19v47h319v-47l-37 -15
q-29 -12 -40 -33t-19 -42l-393 -959q-64 -157 -133.5 -242t-158.5 -85q-88 0 -133.5 37z" />
    <glyph glyph-name="z" unicode="z" horiz-adv-x="920" 
d="M305 864q-52 0 -72 -37l-110 -200h-43l14 229l-12 78h752v-41l-555 -811h331q22 0 29.5 6t19.5 25l146 229h45q-30 -140 -38 -310l-1 -32h-756v41l559 823h-309z" />
    <glyph glyph-name="braceleft" unicode="{" horiz-adv-x="1024" 
d="M838 -518q-307 0 -340 135t-33 219v428q0 123 -93.5 181.5t-224.5 58.5v57q208 0 263 97.5t55 172.5v347q0 185 70.5 269.5t281.5 84.5v-51q-171 0 -197 -99.5t-26 -173.5v-336q0 -201 -91 -258t-157 -65q193 -26 220.5 -129.5t27.5 -173.5v-436q0 -213 93 -243t151 -30
v-55z" />
    <glyph glyph-name="bar" unicode="|" horiz-adv-x="750" 
d="M303 1532h141v-2050l-141 -2v2052z" />
    <glyph glyph-name="braceright" unicode="}" horiz-adv-x="1018" 
d="M186 -463q246 0 246 273v436q0 206 91 249.5t157 53.5q-124 13 -186 104t-62 219v336q0 214 -84 243.5t-141 29.5v51q212 0 283 -85t71 -269v-347q0 -138 94 -204t222 -66v-57q-206 0 -261 -86t-55 -154v-428q0 -180 -81.5 -267t-293.5 -87v55z" />
    <glyph glyph-name="asciitilde" unicode="~" horiz-adv-x="1247" 
d="M792 1104q-36 0 -61 8.5t-49 20.5t-44.5 25t-36.5 23t-32.5 21.5t-46 28t-63.5 16.5q-59 0 -85 -38.5t-26 -86.5h-49q0 82 31.5 135.5t67.5 80t80 26.5t69.5 -8t46.5 -20.5t39.5 -27.5t34.5 -26t29.5 -20.5t40 -22t60.5 -12.5q56 0 84.5 39t28.5 88h45q0 -179 -64 -214.5
t-100 -35.5z" />
    <glyph glyph-name="nonbreakingspace" unicode="&#xa0;" horiz-adv-x="473" 
 />
    <glyph glyph-name="exclamdown" unicode="&#xa1;" horiz-adv-x="547" 
d="M193.5 1086q-33.5 37 -33.5 76q0 67 34.5 105t73.5 38q64 0 99.5 -38t35.5 -78t-9.5 -63t-35 -50t-78.5 -27t-86.5 37zM397 25q-53 -50 -119 -50t-122 50q70 409 81 630.5t11 247.5h59q0 -150 34.5 -442.5t55.5 -435.5z" />
    <glyph glyph-name="cent" unicode="&#xa2;" 
d="M625 -186h-45v157h-5q-264 0 -398 150.5t-134 388.5t152 386.5t385 154.5v123h45v-123q123 -5 272 -62l33 43h39l16 -354h-59q-33 153 -84 219q-66 58 -121 73t-96 17v-942q75 12 180 76q46 37 80.5 117.5t40.5 107.5h61l-63 -303q-145 -59 -299 -70v-159zM346.5 178.5
q90.5 -135.5 233.5 -137.5v944q-157 -11 -240.5 -147.5t-83.5 -330.5q0 -193 90.5 -328.5z" />
    <glyph glyph-name="sterling" unicode="&#xa3;" 
d="M993 283q0 -349 -315 -349q-86 0 -206 22.5t-196 33t-162 10.5t-114 -12v37l90 100q66 0 116 54.5t58 154.5l25 264h-168l37 84h139l16 182q18 193 137.5 310.5t305.5 117.5q108 0 181 -44t73 -102q0 -120 -103 -120q-37 0 -59.5 21t-36 69t32.5 84q-27 27 -89 27
q-117 0 -173.5 -81t-73.5 -241l-25 -223h283v-84h-289l-12 -135q-14 -148 -91.5 -233t-154.5 -107q135 0 252.5 -18t169.5 -26.5t100 -8.5q108 0 155.5 52t47.5 161h49z" />
    <glyph glyph-name="yen" unicode="&#xa5;" 
d="M444 129v113h-352v77h352v189h-352v76h318l-330 555l-14 19q-14 18 -46 30l-57 22v60h494v-60l-97 -24q-13 -3 -23.5 -5t-18.5 -7.5t6 -26.5l286 -494l256 486q17 28 2.5 37t-59.5 18l-84 18v58h395v-58l-55 -16q-26 -6 -42.5 -15.5t-33.5 -37.5l-321 -559h309v-76h-322
v-189h322v-77h-322v-113q0 -21 8 -26.5t46 -14.5l147 -29v-59h-612v59l145 29q31 5 43 13.5t12 27.5z" />
    <glyph glyph-name="brokenbar" unicode="&#xa6;" horiz-adv-x="750" 
d="M303 1536h143v-721h-143v721zM303 285h143v-801h-143v801z" />
    <glyph glyph-name="section" unicode="&#xa7;" horiz-adv-x="1063" 
d="M610 1221q-142 0 -176.5 -71.5t-34.5 -115.5q0 -77 35.5 -120t143.5 -105l131 -88q116 -74 173.5 -140t57.5 -178q0 -168 -101 -233.5t-149 -83.5q21 -14 57 -52t66.5 -87.5t30.5 -124.5q0 -140 -104.5 -224.5t-246.5 -84.5t-239.5 56t-97.5 144q0 49 34.5 80t65.5 31
q69 0 107.5 -52.5t-13.5 -154.5q57 -37 118 -37q103 0 157.5 56t54.5 134t-30.5 119t-129.5 103l-133 94q-107 72 -168 143t-61 177t73 184t181 117q-58 38 -118.5 93t-60.5 181q0 151 118.5 229t260.5 78t244 -60t102 -145q0 -84 -45 -100t-65 -16q-58 0 -97 53.5t15 153.5
q-65 47 -156 47zM782 364q0 82 -69 140l-256 174q-95 -60 -116.5 -128.5t-21.5 -107.5t19 -71.5t49.5 -59t69.5 -51t59 -38.5t73.5 -49t65.5 -55q7 4 45 27t60 80t22 139z" />
    <glyph glyph-name="dieresis" unicode="&#xa8;" horiz-adv-x="1124" 
d="M674 1144.5q-29 30.5 -29 73.5q0 44 29 72.5t72 28.5t72.5 -28.5t29.5 -72.5t-29.5 -74t-72.5 -30t-72 30.5zM357 1114q-33 0 -62 30t-29 74t29 72.5t73 28.5t72.5 -28.5t28.5 -62.5t-8 -52t-21.5 -32t-31.5 -22t-51 -8z" />
    <glyph glyph-name="copyright" unicode="&#xa9;" horiz-adv-x="1491" 
d="M745 -35q-139 0 -261.5 53t-214.5 144t-145.5 213.5t-53.5 238.5t24.5 202t91 199.5t222 204.5t337.5 91q278 0 477 -197.5t199 -499.5q0 -116 -53.5 -238.5t-145.5 -213.5t-215 -144t-262 -53zM745 55q124 0 228 47t179.5 126.5t118 185.5t42.5 223t-42.5 223
t-118 186.5t-179.5 127.5t-228 47t-228 -47t-179.5 -127.5t-117.5 -186.5t-42 -223t42 -223t117.5 -185.5t179.5 -126.5t228 -47zM796 1004q103 0 191 -33l27 24h35l16 -254h-43q-27 129 -61 166q-45 35 -87 40t-102 5t-115 -24.5t-99 -82t-44 -200.5q0 -225 100.5 -271
t175.5 -46t144 39q44 36 86 170h47l-47 -222q-115 -43 -234 -43q-217 0 -330.5 105t-113.5 263t126.5 261t327.5 103z" />
    <glyph glyph-name="ordfeminine" unicode="&#xaa;" horiz-adv-x="991" 
d="M612 666q-109 -111 -243 -111t-168.5 71.5t-34.5 119.5q0 91 91.5 140t227.5 66l127 15v96q0 88 -33 128t-117 40q-83 0 -138 -33q16 -27 16 -55q0 -47 -22.5 -75t-55.5 -28q-34 0 -50.5 19.5t-16.5 47.5t12 49t30 37.5t39.5 30t35.5 22.5t20 13.5t50 24.5t106 19
q128 0 185.5 -49.5t57.5 -172.5v-203q0 -204 10 -231q38 -12 138 -12v-35q-92 -45 -150 -45q-106 0 -117 111zM168 412h676v-88h-676v88zM297 756q0 -109 145 -109q103 0 170 64v207l-123 -21q-129 -16 -160.5 -61t-31.5 -80z" />
    <glyph glyph-name="guillemotleft" unicode="&#xab;" horiz-adv-x="797" 
d="M377 537v49l338 327v-65l-185 -285v-4l185 -285v-65zM20 537v49l338 327v-65l-184 -285v-4l184 -285v-65z" />
    <glyph glyph-name="logicalnot" unicode="&#xac;" 
d="M911 449h-831v100h926v-463h-95v363z" />
    <glyph glyph-name="registered" unicode="&#xae;" horiz-adv-x="1491" 
d="M745 -35q-139 0 -261.5 53t-214.5 144t-145.5 213.5t-53.5 238.5t24.5 202t91 199.5t222 204.5t337.5 91q278 0 477 -197.5t199 -499.5q0 -116 -53.5 -238.5t-145.5 -213.5t-215 -144t-262 -53zM745 55q124 0 228 47t179.5 126.5t118 185.5t42.5 223t-42.5 223
t-118 186.5t-179.5 127.5t-228 47t-228 -47t-179.5 -127.5t-117.5 -186.5t-42 -223t42 -223t117.5 -185.5t179.5 -126.5t228 -47zM481 377v543q0 12 -4.5 15t-27.5 7l-80 16v39h352q213 0 256 -69t43 -109q0 -73 -57 -128.5t-144 -72.5q21 -11 41.5 -38t36.5 -48l84 -96
q47 -57 82 -80l84 -16v-43h-205q-40 21 -115 125l-125 170h-81v-215q0 -13 5.5 -16.5t26.5 -6.5l78 -14v-43h-362v43l75 14q34 6 35.5 11.5t1.5 11.5zM700 936q-22 0 -79 -10v-295h75q141 0 158.5 63.5t17.5 97.5q0 74 -29.5 109t-119.5 35h-23z" />
    <glyph glyph-name="macron" unicode="&#xaf;" horiz-adv-x="1124" 
d="M328 1192h467v-78h-467v78z" />
    <glyph glyph-name="macron" unicode="&#x2c9;" horiz-adv-x="1124" 
d="M328 1192h467v-78h-467v78z" />
    <glyph glyph-name="degree" unicode="&#xb0;" horiz-adv-x="887" 
d="M88 1058q0 149 104 251t252 102q149 0 251 -101t102 -252t-102.5 -252t-251.5 -101q-148 0 -251.5 102t-103.5 251zM626 861.5q74 79.5 74 193.5t-74 194t-184 80q-111 0 -186.5 -81t-75.5 -193t76 -192.5t186 -80.5t184 79.5z" />
    <glyph glyph-name="plusminus" unicode="&#xb1;" 
d="M489 449h-417v92h417v469h99v-469h418v-92h-418v-519h-99v519zM72 -205h934v-92h-934v92z" />
    <glyph glyph-name="twosuperior" unicode="&#xb2;" horiz-adv-x="799" 
d="M72 1218q0 36 18 84t78.5 109.5t210.5 61.5q222 0 268.5 -95.5t46.5 -147.5t-14 -93t-37 -77.5t-53 -69.5t-61 -62.5t-61 -55t-54 -47.5l-199 -151h373q36 0 47 20l102 140h43q-34 -96 -51 -185t-18 -92h-658v49l275 244q27 28 112.5 113.5t85.5 234.5q0 182 -186 182
q-147 0 -178 -70.5t-31 -115.5v-49h-51q-8 37 -8 73z" />
    <glyph glyph-name="threesuperior" unicode="&#xb3;" horiz-adv-x="799" 
d="M396 1386q-218 0 -218 -167h-49q0 103 76 177t209 74q208 0 249.5 -77t41.5 -121q0 -76 -58 -138t-125 -85q221 -51 221 -240q0 -129 -106.5 -200.5t-288.5 -71.5q-93 0 -154 24t-90.5 49.5t-29.5 61.5t20 62t55 26q94 0 105 -94l6 -48q46 -26 88 -26q225 0 225 215
q0 125 -87 149.5t-138 24.5t-80 -14v61q101 10 140 28q72 35 105.5 77t37.5 115t-47.5 105.5t-107.5 32.5z" />
    <glyph glyph-name="acute" unicode="&#xb4;" horiz-adv-x="1124" 
d="M789 1501q23 0 42 -20t19 -59t-53 -97l-209 -211h-47l135 299q21 52 55.5 70t57.5 18z" />
    <glyph glyph-name="mu" unicode="&#xb5;" horiz-adv-x="1221" 
d="M557 -18q-178 0 -221 86q24 -288 24 -370t-6 -104.5t-26 -51.5t-59 -29q-61 0 -77 35t-16 105q0 120 13.5 277t13.5 242l-17 762h185v-553q0 -189 67 -237t122 -48q95 0 149 42.5t88 115.5v680h184v-748q0 -46 16.5 -70t62.5 -24t77.5 19t66.5 59l23 -31
q-83 -155 -258 -155q-120 0 -147 74.5t-25 134.5q-51 -139 -127 -175t-113 -36z" />
    <glyph glyph-name="mu" unicode="&#x3bc;" horiz-adv-x="1221" 
d="M557 -18q-178 0 -221 86q24 -288 24 -370t-6 -104.5t-26 -51.5t-59 -29q-61 0 -77 35t-16 105q0 120 13.5 277t13.5 242l-17 762h185v-553q0 -189 67 -237t122 -48q95 0 149 42.5t88 115.5v680h184v-748q0 -46 16.5 -70t62.5 -24t77.5 19t66.5 59l23 -31
q-83 -155 -258 -155q-120 0 -147 74.5t-25 134.5q-51 -139 -127 -175t-113 -36z" />
    <glyph glyph-name="paragraph" unicode="&#xb6;" horiz-adv-x="1106" 
d="M590 414h-74q-171 0 -327 107.5t-156 338.5q0 298 199.5 354t332.5 56h545v-92h-164v-1178h-94v1178h-166v-1735h-96v971z" />
    <glyph glyph-name="periodcentered" unicode="&#xb7;" horiz-adv-x="543" 
d="M180.5 520q-39.5 41 -39.5 84q0 73 39.5 112.5t81.5 39.5q70 0 109 -40.5t39 -82.5q0 -43 -11 -68.5t-39.5 -55.5t-83.5 -30q-56 0 -95.5 41z" />
    <glyph glyph-name="periodcentered" unicode="&#x22c5;" horiz-adv-x="543" 
d="M180.5 520q-39.5 41 -39.5 84q0 73 39.5 112.5t81.5 39.5q70 0 109 -40.5t39 -82.5q0 -43 -11 -68.5t-39.5 -55.5t-83.5 -30q-56 0 -95.5 41z" />
    <glyph glyph-name="cedilla" unicode="&#xb8;" horiz-adv-x="1124" 
d="M666 -334q0 68 -92 109t-103.5 56t-11.5 29t14 31l78 103h51l-74 -96l101 -45q68 -31 106.5 -68t38.5 -86q0 -94 -67.5 -145.5t-174.5 -51.5t-178 47v43q60 -43 138 -43q174 0 174 117z" />
    <glyph glyph-name="onesuperior" unicode="&#xb9;" horiz-adv-x="799" 
d="M340 680v629h-18l-226 -72l-14 51q2 1 151 66.5t220 113.5h53v-788q0 -29 10.5 -38.5t44.5 -12.5l160 -19v-55h-612v55l180 21q34 3 42.5 13t8.5 36z" />
    <glyph glyph-name="ordmasculine" unicode="&#xba;" horiz-adv-x="1055" 
d="M267 660q-105 105 -105 266t106.5 269t265 108t264 -104t105.5 -265q0 -160 -106 -269.5t-265.5 -109.5t-264.5 105zM186 412h676v-88h-676v88zM768 917q0 133 -62.5 226.5t-173.5 93.5t-175 -83t-64 -213t64.5 -228.5t172.5 -98.5q111 0 174.5 85t63.5 218z" />
    <glyph glyph-name="guillemotright" unicode="&#xbb;" horiz-adv-x="797" 
d="M438 274l185 285v4l-185 285v65l338 -327v-49l-338 -328v65zM82 274l184 285v4l-184 285v65l338 -327v-49l-338 -328v65z" />
    <glyph glyph-name="onequarter" unicode="&#xbc;" horiz-adv-x="1999" 
d="M340 680v629h-18l-226 -72l-14 51q2 1 151 66.5t220 113.5h53v-788q0 -29 10.5 -38.5t44.5 -12.5l160 -19v-55h-612v55l180 21q34 3 42.5 13t8.5 36zM1405 1186h113l-1227 -1483h-113zM1210 -391v137h-446v47l444 596q45 6 85.5 20.5t47.5 18.5h33v-608h135v-74h-135
v-141q0 -13 5.5 -17.5t25.5 -7.5l88 -16v-49h-434v49l119 16q17 2 24.5 7.5t7.5 21.5zM1210 -180v465l-344 -465h344z" />
    <glyph glyph-name="onehalf" unicode="&#xbd;" horiz-adv-x="1999" 
d="M340 680v629h-18l-226 -72l-14 51q2 1 151 66.5t220 113.5h53v-788q0 -29 10.5 -38.5t44.5 -12.5l160 -19v-55h-612v55l180 21q34 3 42.5 13t8.5 36zM1405 1186h113l-1227 -1483h-113zM877 176q0 36 18 84t79 109t210 61q222 0 268.5 -95t46.5 -148t-14 -93.5t-37 -77
t-53 -69t-61 -62t-61 -55t-54 -47.5l-199 -152h375q32 0 47 21l100 139h43q-30 -92 -49 -182.5t-20 -93.5h-658v49l275 243q27 28 112.5 114.5t85.5 234.5q0 182 -186 182q-144 0 -176.5 -70.5t-32.5 -99.5v-28q0 -27 2 -38h-53q-8 38 -8 74z" />
    <glyph glyph-name="threequarters" unicode="&#xbe;" horiz-adv-x="1999" 
d="M396 1386q-218 0 -218 -167h-49q0 103 76 177t209 74q208 0 249.5 -77t41.5 -121q0 -76 -58 -138t-125 -85q221 -51 221 -240q0 -129 -106.5 -200.5t-288.5 -71.5q-93 0 -154 24t-90.5 49.5t-29.5 61.5t20 62t55 26q94 0 105 -94l6 -48q46 -26 88 -26q225 0 225 215
q0 125 -87 149.5t-138 24.5t-80 -14v61q101 10 140 28q72 35 105.5 77t37.5 115t-47.5 105.5t-107.5 32.5zM1405 1186h113l-1227 -1483h-113zM1210 -391v137h-446v47l444 596q45 6 85.5 20.5t47.5 18.5h33v-608h135v-74h-135v-141q0 -13 5.5 -17.5t25.5 -7.5l88 -16v-49
h-434v49l119 16q17 2 24.5 7.5t7.5 21.5zM1210 -180v465l-344 -465h344z" />
    <glyph glyph-name="questiondown" unicode="&#xbf;" horiz-adv-x="944" 
d="M484 1084q-35 37 -35 77q0 39 9.5 62.5t26 41t38.5 28t60.5 10.5t73.5 -38.5t35 -77.5q0 -40 -9.5 -63t-34 -50t-77 -27t-87.5 37zM737 309q76 1 76 -83t-102 -152l-39 -29q-100 -72 -252 -72q-48 0 -107.5 18t-125.5 74t-66 195q0 183 118 267t172 120t77.5 65t23.5 66
t-25 96h140q16 -169 -96 -238.5t-174 -138.5t-62 -224q0 -110 54.5 -164t172.5 -54q63 0 135 47q-20 56 -20 88q0 55 26.5 87t73.5 32z" />
    <glyph glyph-name="Agrave" unicode="&#xc0;" horiz-adv-x="1237" 
d="M1231 0h-496v57l109 25q26 6 34 17t-1 36l-91 240h-464l-89 -248q-9 -25 1 -33t28 -12l109 -25v-57h-400v57l97 25q35 9 49 47l444 1174h103l440 -1178q11 -33 49 -45l78 -23v-57zM754 465l-207 555l-199 -555h406zM331 1720q0 28 19 48t42 20q36 0 69 -28q32 -28 45 -60
l135 -299h-47l-209 211q-54 54 -54 108z" />
    <glyph glyph-name="Aacute" unicode="&#xc1;" horiz-adv-x="1237" 
d="M1231 0h-496v57l109 25q26 6 34 17t-1 36l-91 240h-464l-89 -248q-9 -25 1 -33t28 -12l109 -25v-57h-400v57l97 25q35 9 49 47l444 1174h103l440 -1178q11 -33 49 -45l78 -23v-57zM754 465l-207 555l-199 -555h406zM846 1788q23 0 42 -20t19 -59t-53 -97l-209 -211h-47
l135 299q21 52 73 80q16 8 40 8z" />
    <glyph glyph-name="Acircumflex" unicode="&#xc2;" horiz-adv-x="1237" 
d="M1231 0h-496v57l109 25q26 6 34 17t-1 36l-91 240h-464l-89 -248q-9 -25 1 -33t28 -12l109 -25v-57h-400v57l97 25q35 9 49 47l444 1174h103l440 -1178q11 -33 49 -45l78 -23v-57zM754 465l-207 555l-199 -555h406zM584 1760h49l309 -359h-66l-266 203h-4l-266 -203h-66z
" />
    <glyph glyph-name="Atilde" unicode="&#xc3;" horiz-adv-x="1237" 
d="M1231 0h-496v57l109 25q26 6 34 17t-1 36l-91 240h-464l-89 -248q-9 -25 1 -33t28 -12l109 -25v-57h-400v57l97 25q35 9 49 47l444 1174h103l440 -1178q11 -33 49 -45l78 -23v-57zM754 465l-207 555l-199 -555h406zM788 1383q-36 0 -62 8q-26 7 -48 19q-24 12 -44 24
t-37 23q-17 10 -33 22q-16 11 -46 29t-64 18q-59 0 -85 -39q-25 -39 -25 -86h-49q-1 82 31 135q32 54 68 80t80 27q44 0 70 -8q26 -9 46 -21t38 -27t34 -26t31 -21q14 -10 39 -23t60 -13q59 0 87 41t28 88h45q0 -179 -96 -231q-32 -18 -68 -19z" />
    <glyph glyph-name="Adieresis" unicode="&#xc4;" horiz-adv-x="1237" 
d="M1231 0h-496v57l109 25q26 6 34 17t-1 36l-91 240h-464l-89 -248q-9 -25 1 -33t28 -12l109 -25v-57h-400v57l97 25q35 9 49 47l444 1174h103l440 -1178q11 -33 49 -45l78 -23v-57zM754 465l-207 555l-199 -555h406zM731 1431q-29 30 -29 74q0 45 29 73t72 28t73 -28
t29 -74q1 -44 -29 -74t-73 -29q-43 0 -72 30zM414 1401q-33 -1 -62 29t-29 74t29 74q28 28 72 28t73 -28t29 -62t-8 -52t-22 -33q-14 -14 -31 -22q-18 -8 -51 -8z" />
    <glyph glyph-name="Aring" unicode="&#xc5;" horiz-adv-x="1237" 
d="M1231 0h-496v57l109 25q26 6 34 17t-1 36l-91 240h-464l-89 -248q-9 -25 1 -33t28 -12l109 -25v-57h-400v57l97 25q35 9 49 47l444 1174h103l440 -1178q11 -33 49 -45l78 -23v-57zM754 465l-207 555l-199 -555h406zM608 1401q-74 -1 -130 53t-56 130t56 128q56 54 130 54
q76 0 132 -54q56 -52 55 -128q1 -76 -55 -130t-132 -53zM696 1484q33 42 33 84q-1 42 -9 68t-24 44q-16 20 -38 32t-50 11q-53 0 -87 -41t-34 -84q1 -42 9 -68t24 -46q35 -42 89 -42t87 42z" />
    <glyph glyph-name="AE" unicode="&#xc6;" horiz-adv-x="1769" 
d="M1239 72q116 0 181.5 23.5t86.5 39.5q73 81 121 264h55l-59 -399h-999v57l174 35v342h-396l-182 -344l152 -33v-57h-402v57l133 33l646 1180h680q102 0 163 22l37 -407h-55q-48 186 -96 250q-60 39 -153.5 50t-141.5 11h-19q-85 0 -149 -12v-482h233q63 37 85 101t26 88
h41v-467h-41q-32 142 -111 197h-233v-535q95 -14 180 -14h43zM799 506v668l-357 -668h357z" />
    <glyph glyph-name="Ccedilla" unicode="&#xc7;" horiz-adv-x="1364" 
d="M812 1303q177 0 321 -64l38 51h43l25 -440h-55q-23 130 -52.5 199t-44.5 90q-109 98 -290 98q-325 0 -401.5 -215.5t-76.5 -360.5q0 -278 124.5 -446t320.5 -168q116 0 190.5 35.5t96.5 50.5q49 52 86.5 159.5t46.5 139.5h57l-72 -381q-152 -68 -387 -76l-59 -77l100 -45
q67 -31 106.5 -67.5t39.5 -86.5q0 -94 -67.5 -145.5t-174.5 -51.5t-178 47v43q60 -43 137 -43q174 0 174 117q0 68 -91.5 109t-103 56t-11.5 29t14 31l63 84q-307 12 -479 202.5t-172 470.5q0 279 200.5 467t531.5 188z" />
    <glyph glyph-name="Egrave" unicode="&#xc8;" horiz-adv-x="1241" 
d="M702 72q116 0 214 35q34 12 55 28q67 79 121 264h55l-60 -399h-1011v59l119 25q49 8 53 24q2 6 2 17v1018q0 21 -9 29t-44 14l-121 24v60h817q98 0 164 22l37 -407h-56q-48 186 -96 250q-59 37 -206 55q-46 6 -93 6h-18q-96 0 -160 -12v-482h246q62 38 98 138
q10 28 14 51h41v-467h-41q-31 142 -112 197h-246v-535q95 -14 190 -14h47zM333 1720q0 28 19 48t42 20q36 0 69 -28q32 -28 45 -60l135 -299h-47l-209 211q-54 54 -54 108z" />
    <glyph glyph-name="Eacute" unicode="&#xc9;" horiz-adv-x="1241" 
d="M702 72q116 0 214 35q34 12 55 28q67 79 121 264h55l-60 -399h-1011v59l119 25q49 8 53 24q2 6 2 17v1018q0 21 -9 29t-44 14l-121 24v60h817q98 0 164 22l37 -407h-56q-48 186 -96 250q-59 37 -206 55q-46 6 -93 6h-18q-96 0 -160 -12v-482h246q62 38 98 138
q10 28 14 51h41v-467h-41q-31 142 -112 197h-246v-535q95 -14 190 -14h47zM848 1788q23 0 42 -20t19 -59t-53 -97l-209 -211h-47l135 299q21 52 73 80q16 8 40 8z" />
    <glyph glyph-name="Ecircumflex" unicode="&#xca;" horiz-adv-x="1241" 
d="M702 72q116 0 214 35q34 12 55 28q67 79 121 264h55l-60 -399h-1011v59l119 25q49 8 53 24q2 6 2 17v1018q0 21 -9 29t-44 14l-121 24v60h817q98 0 164 22l37 -407h-56q-48 186 -96 250q-59 37 -206 55q-46 6 -93 6h-18q-96 0 -160 -12v-482h246q62 38 98 138
q10 28 14 51h41v-467h-41q-31 142 -112 197h-246v-535q95 -14 190 -14h47zM596 1760h49l309 -359h-66l-266 203h-4l-266 -203h-66z" />
    <glyph glyph-name="Edieresis" unicode="&#xcb;" horiz-adv-x="1241" 
d="M702 72q116 0 214 35q34 12 55 28q67 79 121 264h55l-60 -399h-1011v59l119 25q49 8 53 24q2 6 2 17v1018q0 21 -9 29t-44 14l-121 24v60h817q98 0 164 22l37 -407h-56q-48 186 -96 250q-59 37 -206 55q-46 6 -93 6h-18q-96 0 -160 -12v-482h246q62 38 98 138
q10 28 14 51h41v-467h-41q-31 142 -112 197h-246v-535q95 -14 190 -14h47zM733 1431q-29 30 -29 74q0 45 29 73t72 28t73 -28t29 -74q1 -44 -29 -74t-73 -29q-43 0 -72 30zM416 1401q-33 -1 -62 29t-29 74t29 74q28 28 72 28t73 -28t29 -62t-8 -52t-22 -33q-14 -14 -31 -22
q-18 -8 -51 -8z" />
    <glyph glyph-name="Igrave" unicode="&#xcc;" horiz-adv-x="729" 
d="M258 125v1018q0 22 -8 28q-8 7 -45 15l-121 24v60h561v-60l-119 -24q-48 -11 -52 -21q-3 -11 -3 -22v-1018q0 -22 8 -28q8 -7 45 -13l121 -25v-59h-561v59l119 23q49 8 53 25q2 7 2 18zM78 1720q0 28 19 48t42 20q36 0 69 -28q32 -28 45 -60l135 -299h-47l-209 211
q-54 54 -54 108z" />
    <glyph glyph-name="Iacute" unicode="&#xcd;" horiz-adv-x="729" 
d="M258 125v1018q0 22 -8 28q-8 7 -45 15l-121 24v60h561v-60l-119 -24q-48 -11 -52 -21q-3 -11 -3 -22v-1018q0 -22 8 -28q8 -7 45 -13l121 -25v-59h-561v59l119 23q49 8 53 25q2 7 2 18zM593 1788q23 0 42 -20t19 -59t-53 -97l-209 -211h-47l135 299q22 52 74 80
q16 8 39 8z" />
    <glyph glyph-name="Icircumflex" unicode="&#xce;" horiz-adv-x="729" 
d="M258 125v1018q0 22 -8 28q-8 7 -45 15l-121 24v60h561v-60l-119 -24q-48 -11 -52 -21q-3 -11 -3 -22v-1018q0 -22 8 -28q8 -7 45 -13l121 -25v-59h-561v59l119 23q49 8 53 25q2 7 2 18zM341 1760h49l309 -359h-66l-266 203h-4l-266 -203h-66z" />
    <glyph glyph-name="Idieresis" unicode="&#xcf;" horiz-adv-x="729" 
d="M258 125v1018q0 22 -8 28q-8 7 -45 15l-121 24v60h561v-60l-119 -24q-48 -11 -52 -21q-3 -11 -3 -22v-1018q0 -22 8 -28q8 -7 45 -13l121 -25v-59h-561v59l119 23q49 8 53 25q2 7 2 18zM487 1431q-29 30 -29 74q0 45 29 73t72 28t73 -28t29 -74q1 -44 -29 -74t-73 -29
q-43 0 -72 30zM170 1401q-33 -1 -62 29t-29 74t29 74q28 28 72 28t73 -28t29 -62t-8 -52t-22 -33q-14 -14 -31 -22q-18 -8 -51 -8z" />
    <glyph glyph-name="Eth" unicode="&#xd0;" horiz-adv-x="1464" 
d="M258 123v489h-174v99h174v432q0 21 -9 28t-44 15l-121 24v60h608q295 0 494.5 -165t199.5 -448q0 -284 -180.5 -470.5t-468.5 -186.5h-653v57l119 25q40 9 47.5 14t7.5 27zM639 68h49q212 0 340.5 155t128.5 420q0 159 -34.5 249t-116.5 202t-351 112h-47q-73 0 -135 -26
v-469h219v-99h-219v-522q64 -22 166 -22z" />
    <glyph glyph-name="Ntilde" unicode="&#xd1;" horiz-adv-x="1485" 
d="M328 338q0 -218 22 -243q8 -10 25 -13l168 -25v-57h-484v57l125 21q18 3 26 12t10 32q10 97 11 214v807q0 23 -10 30t-53 15l-96 22v60h338l749 -926v586q0 70 -2 108q-2 36 -3 60q-2 24 -4 46t-10 32q-8 9 -26 12l-172 24v58h483v-58l-122 -20q-17 -2 -29 -10t-14 -42
q-7 -121 -7 -208v-957h-45l-880 1086v-723zM910 1383q-36 0 -60 8q-26 7 -50 19t-44 24t-36 23q-16 10 -32 22q-16 11 -47 29q-30 18 -64 18q-59 0 -85 -39q-25 -39 -25 -86h-49q0 82 32 135q32 54 67 80q36 26 80 27q43 0 69 -8q26 -9 46 -21t39 -27t35 -26t30 -21t39 -23
t60 -13q59 0 87 41t28 88h45q1 -179 -95 -231q-34 -18 -70 -19z" />
    <glyph glyph-name="Ograve" unicode="&#xd2;" horiz-adv-x="1479" 
d="M738 -27q-96 0 -184 25q-86 26 -160 70q-148 89 -234 245q-86 157 -86 315q0 297 188 486t475 189t479 -190q118 -117 164 -287q22 -84 23 -175q-1 -91 -23 -177t-64 -160q-42 -76 -100 -138q-59 -62 -133 -108q-73 -45 -161 -70t-184 -25zM737 49q213 1 327 185
q100 161 99 417q0 397 -230 531q-81 48 -195 47q-214 1 -325 -173q-98 -153 -98 -405q0 -417 228 -554q80 -48 194 -48zM452 1720q0 28 19 48t42 20q36 0 69 -28q32 -28 45 -60l135 -299h-47l-209 211q-54 54 -54 108z" />
    <glyph glyph-name="Oacute" unicode="&#xd3;" horiz-adv-x="1479" 
d="M738 -27q-96 0 -184 25q-86 26 -160 70q-148 89 -234 245q-86 157 -86 315q0 297 188 486t475 189t479 -190q118 -117 164 -287q22 -84 23 -175q-1 -91 -23 -177t-64 -160q-42 -76 -100 -138q-59 -62 -133 -108q-73 -45 -161 -70t-184 -25zM737 49q213 1 327 185
q100 161 99 417q0 397 -230 531q-81 48 -195 47q-214 1 -325 -173q-98 -153 -98 -405q0 -417 228 -554q80 -48 194 -48zM967 1788q23 0 42 -20t19 -59t-53 -97l-209 -211h-47l135 299q22 52 74 80q16 8 39 8z" />
    <glyph glyph-name="Ocircumflex" unicode="&#xd4;" horiz-adv-x="1479" 
d="M738 -27q-96 0 -184 25q-86 26 -160 70q-148 89 -234 245q-86 157 -86 315q0 297 188 486t475 189t479 -190q118 -117 164 -287q22 -84 23 -175q-1 -91 -23 -177t-64 -160q-42 -76 -100 -138q-59 -62 -133 -108q-73 -45 -161 -70t-184 -25zM737 49q213 1 327 185
q100 161 99 417q0 397 -230 531q-81 48 -195 47q-214 1 -325 -173q-98 -153 -98 -405q0 -417 228 -554q80 -48 194 -48zM715 1760h49l309 -359h-66l-266 203h-4l-266 -203h-66z" />
    <glyph glyph-name="Otilde" unicode="&#xd5;" horiz-adv-x="1479" 
d="M738 -27q-96 0 -184 25q-86 26 -160 70q-148 89 -234 245q-86 157 -86 315q0 297 188 486t475 189t479 -190q118 -117 164 -287q22 -84 23 -175q-1 -91 -23 -177t-64 -160q-42 -76 -100 -138q-59 -62 -133 -108q-73 -45 -161 -70t-184 -25zM737 49q213 1 327 185
q100 161 99 417q0 397 -230 531q-81 48 -195 47q-214 1 -325 -173q-98 -153 -98 -405q0 -417 228 -554q80 -48 194 -48zM908 1383q-36 0 -60 8q-26 7 -50 19t-44 24t-36 23q-16 10 -32 22q-16 11 -47 29q-30 18 -64 18q-59 0 -85 -39q-25 -39 -25 -86h-49q0 82 32 135
q32 54 67 80q36 26 80 27q43 0 69 -8q26 -9 46 -21t39 -27t35 -26t30 -21t39 -23t60 -13q59 0 87 41t28 88h45q1 -179 -95 -231q-34 -18 -70 -19z" />
    <glyph glyph-name="Odieresis" unicode="&#xd6;" horiz-adv-x="1479" 
d="M738 -27q-96 0 -184 25q-86 26 -160 70q-148 89 -234 245q-86 157 -86 315q0 297 188 486t475 189t479 -190q118 -117 164 -287q22 -84 23 -175q-1 -91 -23 -177t-64 -160q-42 -76 -100 -138q-59 -62 -133 -108q-73 -45 -161 -70t-184 -25zM737 49q213 1 327 185
q100 161 99 417q0 397 -230 531q-81 48 -195 47q-214 1 -325 -173q-98 -153 -98 -405q0 -417 228 -554q80 -48 194 -48zM852 1431q-29 30 -29 74q0 45 29 73t72 28q42 0 72 -28t30 -74q0 -44 -30 -74t-72 -29q-43 0 -72 30zM535 1401q-33 -1 -62 29t-29 74t29 74
q29 28 73 28t72 -28q29 -28 29 -62t-8 -52q-7 -18 -21 -33q-14 -14 -32 -22t-51 -8z" />
    <glyph glyph-name="multiply" unicode="&#xd7;" 
d="M111 109l366 389l-366 387l45 55l366 -385l367 385l45 -55l-367 -387l367 -389l-43 -54l-369 385l-368 -385z" />
    <glyph glyph-name="Oslash" unicode="&#xd8;" horiz-adv-x="1479" 
d="M76 651q0 268 189 460t472 192q195 0 342 -86l97 153h69l-117 -186q196 -140 234.5 -296t38.5 -240t-22 -169.5t-86 -201.5t-215.5 -210t-327.5 -94t-322 74l-123 -201h-69l145 234q-138 93 -221.5 246t-83.5 325zM422 1059q-105 -170 -105 -433q0 -262 129 -429l570 911
q-110 121 -279 121q-210 0 -315 -170zM1055 229.5q106 180.5 106 424.5q0 243 -106 401l-566 -905q103 -101 248 -101q212 0 318 180.5z" />
    <glyph glyph-name="Ugrave" unicode="&#xd9;" horiz-adv-x="1438" 
d="M217 475v670q0 29 -24 37q-10 4 -27 8l-100 22v58h540v-58l-123 -24q-35 -6 -43 -15t-8 -30v-668q0 -191 90 -296t238 -105q188 0 278 115t90 305v651q0 19 -8 27t-43 14l-125 26v58h420v-58l-84 -20q-48 -11 -52 -30q-2 -7 -1 -17v-651q1 -246 -133 -384
q-133 -138 -363 -137q-237 0 -380 128q-142 128 -142 374zM473 1720q0 28 19 48t42 20q36 0 69 -28q32 -28 45 -60l135 -299h-47l-209 211q-54 54 -54 108z" />
    <glyph glyph-name="Uacute" unicode="&#xda;" horiz-adv-x="1438" 
d="M217 475v670q0 29 -24 37q-10 4 -27 8l-100 22v58h540v-58l-123 -24q-35 -6 -43 -15t-8 -30v-668q0 -191 90 -296t238 -105q188 0 278 115t90 305v651q0 19 -8 27t-43 14l-125 26v58h420v-58l-84 -20q-48 -11 -52 -30q-2 -7 -1 -17v-651q1 -246 -133 -384
q-133 -138 -363 -137q-237 0 -380 128q-142 128 -142 374zM1008 1788q23 0 42 -20t19 -59t-53 -97l-209 -211h-47l135 299q21 52 73 80q16 8 40 8z" />
    <glyph glyph-name="Ucircumflex" unicode="&#xdb;" horiz-adv-x="1438" 
d="M217 475v670q0 29 -24 37q-10 4 -27 8l-100 22v58h540v-58l-123 -24q-35 -6 -43 -15t-8 -30v-668q0 -191 90 -296t238 -105q188 0 278 115t90 305v651q0 19 -8 27t-43 14l-125 26v58h420v-58l-84 -20q-48 -11 -52 -30q-2 -7 -1 -17v-651q1 -246 -133 -384
q-133 -138 -363 -137q-237 0 -380 128q-142 128 -142 374zM736 1760h49l309 -359h-66l-266 203h-4l-266 -203h-66z" />
    <glyph glyph-name="Udieresis" unicode="&#xdc;" horiz-adv-x="1438" 
d="M217 475v670q0 29 -24 37q-10 4 -27 8l-100 22v58h540v-58l-123 -24q-35 -6 -43 -15t-8 -30v-668q0 -191 90 -296t238 -105q188 0 278 115t90 305v651q0 19 -8 27t-43 14l-125 26v58h420v-58l-84 -20q-48 -11 -52 -30q-2 -7 -1 -17v-651q1 -246 -133 -384
q-133 -138 -363 -137q-237 0 -380 128q-142 128 -142 374zM893 1431q-29 30 -29 74q0 45 29 73t72 28t73 -28t29 -74q1 -44 -29 -74t-73 -29q-43 0 -72 30zM576 1401q-33 -1 -62 29t-29 74t29 74q28 28 72 28t73 -28t29 -62t-8 -52t-22 -33q-14 -14 -31 -22q-18 -8 -51 -8z
" />
    <glyph glyph-name="Yacute" unicode="&#xdd;" horiz-adv-x="1237" 
d="M522 129v397l-405 613q-23 34 -37 40q-13 7 -23 11l-57 20v60h494v-60l-97 -20q-31 -6 -39 -18t2 -25l328 -494l297 486q17 28 3 38t-60 19l-84 16v58h395v-58l-55 -14q-47 -11 -76 -55l-375 -578v-436q0 -22 7 -27t46 -14l148 -29v-59h-612v59l145 29q27 6 41 14t14 27z
M877 1788q23 0 42 -20t19 -59t-53 -97l-209 -211h-47l135 299q22 52 74 80q16 8 39 8z" />
    <glyph glyph-name="Thorn" unicode="&#xde;" horiz-adv-x="1190" 
d="M672 299q-111 0 -201 16v-190q0 -22 8 -28.5t45 -12.5l121 -25v-59h-561v59l119 25q50 8 52.5 19t2.5 22v1018q0 21 -8.5 27t-44.5 14l-121 26v60h561v-60l-119 -26q-49 -11 -52 -20.5t-3 -20.5v-131h182q342 0 417 -114.5t75 -209.5t-35 -168t-96.5 -122t-145.5 -74
t-196 -25zM594 942q-70 0 -123 -16v-555h94q181 0 275 79.5t94 231.5q0 204 -114.5 232t-196.5 28h-29z" />
    <glyph glyph-name="germandbls" unicode="&#xdf;" horiz-adv-x="1278" 
d="M922 -25q-160 0 -285 60l-23 264h52q23 -138 65 -188q79 -66 180 -66t121.5 68.5t20.5 104.5q0 69 -28 112t-87 80l-90 57q-89 55 -139 112.5t-50 147.5q0 125 82.5 185.5t113.5 90.5q75 73 75 173t-73.5 154t-152.5 54q-144 0 -221 -86.5t-77 -246.5v-942
q0 -23 19.5 -29.5t53.5 -11.5l68 -11v-57h-471v47l78 19q20 5 32.5 7.5t22.5 8t10 24.5v732h-151l34 96h119v59q0 218 136.5 336.5t349.5 118.5q165 0 269.5 -71t104.5 -193q0 -92 -68.5 -141t-100.5 -72t-58.5 -67t-26.5 -89q0 -79 20 -116t75 -70l133 -86
q108 -68 137 -143.5t29 -133.5t-21.5 -113t-62.5 -94.5t-101 -61.5t-114 -22z" />
    <glyph glyph-name="agrave" unicode="&#xe0;" horiz-adv-x="1028" 
d="M350 -25q-128 0 -200 64t-72 178q0 169 253 252q70 23 140 41l180 47v109q0 119 -58 174t-158 55t-163 -41l33 -51q21 -36 21 -66q0 -53 -28 -87t-78 -34t-76 30t-25 70q0 63 34 103q34 39 85 70l59 37q98 59 209 59q328 0 328 -295v-436q0 -102 14 -158q48 -20 151 -20
v-41q-96 -60 -199 -60q-104 0 -134 95q-10 30 -13 67q-107 -162 -303 -162zM258 244q0 -156 172 -156q105 0 186 76q22 20 35 39v289l-178 -52q-95 -26 -135 -56q-80 -59 -80 -140zM228 1433q0 28 19 48t42 20q36 0 69 -28q32 -28 45 -60l135 -299h-47l-209 211
q-54 54 -54 108z" />
    <glyph glyph-name="aacute" unicode="&#xe1;" horiz-adv-x="1028" 
d="M350 -25q-128 0 -200 64t-72 178q0 169 253 252q70 23 140 41l180 47v109q0 119 -58 174t-158 55t-163 -41l33 -51q21 -36 21 -66q0 -53 -28 -87t-78 -34t-76 30t-25 70q0 63 34 103q34 39 85 70l59 37q98 59 209 59q328 0 328 -295v-436q0 -102 14 -158q48 -20 151 -20
v-41q-96 -60 -199 -60q-104 0 -134 95q-10 30 -13 67q-107 -162 -303 -162zM258 244q0 -156 172 -156q105 0 186 76q22 20 35 39v289l-178 -52q-95 -26 -135 -56q-80 -59 -80 -140zM743 1501q23 0 42 -20t19 -59t-53 -97l-209 -211h-47l135 299q22 51 74 79q16 8 39 9z" />
    <glyph glyph-name="acircumflex" unicode="&#xe2;" horiz-adv-x="1028" 
d="M350 -25q-128 0 -200 64t-72 178q0 169 253 252q70 23 140 41l180 47v109q0 119 -58 174t-158 55t-163 -41l33 -51q21 -36 21 -66q0 -53 -28 -87t-78 -34t-76 30t-25 70q0 63 34 103q34 39 85 70l59 37q98 59 209 59q328 0 328 -295v-436q0 -102 14 -158q48 -20 151 -20
v-41q-96 -60 -199 -60q-104 0 -134 95q-10 30 -13 67q-107 -162 -303 -162zM258 244q0 -156 172 -156q105 0 186 76q22 20 35 39v289l-178 -52q-95 -26 -135 -56q-80 -59 -80 -140zM491 1473h49l309 -359h-66l-266 203h-4l-266 -203h-66z" />
    <glyph glyph-name="atilde" unicode="&#xe3;" horiz-adv-x="1028" 
d="M350 -25q-128 0 -200 64t-72 178q0 169 253 252q70 23 140 41l180 47v109q0 119 -58 174t-158 55t-163 -41l33 -51q21 -36 21 -66q0 -53 -28 -87t-78 -34t-76 30t-25 70q0 63 34 103q34 39 85 70l59 37q98 59 209 59q328 0 328 -295v-436q0 -102 14 -158q48 -20 151 -20
v-41q-96 -60 -199 -60q-104 0 -134 95q-10 30 -13 67q-107 -162 -303 -162zM258 244q0 -156 172 -156q105 0 186 76q22 20 35 39v289l-178 -52q-95 -26 -135 -56q-80 -59 -80 -140zM684 1096q-36 0 -60 8q-26 8 -50 20t-44 24t-36 22t-32 22t-47 30q-30 18 -64 17
q-59 0 -85 -39q-25 -39 -25 -86h-49q0 82 32 135q32 55 67 81q36 26 80 26q43 0 69 -8t46 -20t39 -28q19 -15 35 -26t30 -21t39 -23t60 -13q59 0 87 41t28 88h45q1 -180 -95 -232q-34 -18 -70 -18z" />
    <glyph glyph-name="adieresis" unicode="&#xe4;" horiz-adv-x="1028" 
d="M350 -25q-128 0 -200 64t-72 178q0 169 253 252q70 23 140 41l180 47v109q0 119 -58 174t-158 55t-163 -41l33 -51q21 -36 21 -66q0 -53 -28 -87t-78 -34t-76 30t-25 70q0 63 34 103q34 39 85 70l59 37q98 59 209 59q328 0 328 -295v-436q0 -102 14 -158q48 -20 151 -20
v-41q-96 -60 -199 -60q-104 0 -134 95q-10 30 -13 67q-107 -162 -303 -162zM258 244q0 -156 172 -156q105 0 186 76q22 20 35 39v289l-178 -52q-95 -26 -135 -56q-80 -59 -80 -140zM628 1144q-29 30 -29 74t29 72t72 29q42 -1 72 -29t30 -72t-30 -74t-72 -30q-43 0 -72 30z
M311 1114q-33 0 -62 30t-29 74t29 72t73 29q44 -1 72 -29q29 -28 29 -62t-8 -52q-7 -18 -21 -32t-32 -22t-51 -8z" />
    <glyph glyph-name="aring" unicode="&#xe5;" horiz-adv-x="1028" 
d="M350 -25q-128 0 -200 64t-72 178q0 169 253 252q70 23 140 41l180 47v109q0 119 -58 174t-158 55t-163 -41l33 -51q21 -36 21 -66q0 -53 -28 -87t-78 -34t-76 30t-25 70q0 63 34 103q34 39 85 70l59 37q98 59 209 59q328 0 328 -295v-436q0 -102 14 -158q48 -20 151 -20
v-41q-96 -60 -199 -60q-104 0 -134 95q-10 30 -13 67q-107 -162 -303 -162zM258 244q0 -156 172 -156q105 0 186 76q22 20 35 39v289l-178 -52q-95 -26 -135 -56q-80 -59 -80 -140zM516 1114q-76 0 -132 54q-56 52 -55 128q-1 76 55 130t132 53q74 1 130 -53t56 -130
t-56 -128q-56 -54 -130 -54zM603 1197q33 42 33 84q0 41 -8 67t-24 46t-38 30q-22 12 -51 12q-53 0 -87 -41t-34 -84t8 -69t25 -44q35 -42 89 -43q54 0 87 42z" />
    <glyph glyph-name="ae" unicode="&#xe6;" horiz-adv-x="1554" 
d="M102 217q0 170 152 223t219 70l172 43v113q0 229 -205 229q-94 0 -157 -41l32 -51q21 -36 21 -66q0 -53 -27.5 -87t-78.5 -34q-50 0 -75.5 30t-25.5 70q0 63 36.5 103.5t82.5 69.5l51 35q83 61 209 61q189 0 262 -119q129 119 324 119q145 0 248.5 -89.5t103.5 -238.5
l-12 -110l-189 6l-420 8v-39q0 -195 94.5 -303t249.5 -108t254 129l21 -21q-124 -244 -379 -244q-214 0 -330 172q-125 -172 -362 -172q-127 0 -199 64.5t-72 177.5zM1262 694q0 109 -46 164t-118 55q-122 0 -187.5 -84.5t-76.5 -207.5l417 18q11 20 11 55zM285 247
q0 -159 193 -159q98 0 155 42.5t72 64.5q-49 110 -57.5 169t-8.5 115v8l-164 -47q-83 -26 -136.5 -70.5t-53.5 -122.5z" />
    <glyph glyph-name="ccedilla" unicode="&#xe7;" horiz-adv-x="965" 
d="M719 -301q0 -94 -67.5 -145.5t-174.5 -51.5t-178 47v43q60 -43 137 -43q174 0 174 117q0 69 -91.5 109.5t-103 55.5t-11.5 29t14 31l63 84q-177 12 -286 153.5t-109 352.5t135.5 357.5t339.5 146.5q162 0 237.5 -91t75.5 -167t-43 -93.5t-65 -17.5q-44 0 -76.5 33
t-32.5 74t27 84l27 43q-53 61 -139 61q-147 0 -222.5 -118t-75.5 -287t91.5 -282t241.5 -113q151 0 239 129l22 -23q-104 -231 -336 -242l-59 -77l100 -45q67 -31 106.5 -68t39.5 -86z" />
    <glyph glyph-name="egrave" unicode="&#xe8;" horiz-adv-x="1006" 
d="M618 111q162 0 261 129l20 -21q-124 -244 -383 -244q-195 0 -311 142q-117 142 -119 362q2 220 131 363q128 143 334 143q155 0 255 -88q101 -88 101 -240l-12 -110l-623 14v-39q0 -205 92 -308t254 -103zM723 694q-1 109 -49 164t-120 55q-124 0 -193 -85
q-70 -85 -80 -207l432 18q10 18 10 55zM246 1433q0 28 19 48t42 20q36 0 69 -28q32 -28 45 -60l135 -299h-47l-209 211q-54 54 -54 108z" />
    <glyph glyph-name="eacute" unicode="&#xe9;" horiz-adv-x="1006" 
d="M618 111q162 0 261 129l20 -21q-124 -244 -383 -244q-195 0 -311 142q-117 142 -119 362q2 220 131 363q128 143 334 143q155 0 255 -88q101 -88 101 -240l-12 -110l-623 14v-39q0 -205 92 -308t254 -103zM723 694q-1 109 -49 164t-120 55q-124 0 -193 -85
q-70 -85 -80 -207l432 18q10 18 10 55zM791 1501q23 0 42 -20t19 -59t-53 -97l-209 -211h-47l135 299q22 51 74 79q16 8 39 9z" />
    <glyph glyph-name="ecircumflex" unicode="&#xea;" horiz-adv-x="1006" 
d="M618 111q162 0 261 129l20 -21q-124 -244 -383 -244q-195 0 -311 142q-117 142 -119 362q2 220 131 363q128 143 334 143q155 0 255 -88q101 -88 101 -240l-12 -110l-623 14v-39q0 -205 92 -308t254 -103zM723 694q-1 109 -49 164t-120 55q-124 0 -193 -85
q-70 -85 -80 -207l432 18q10 18 10 55zM499 1473h49l309 -359h-66l-266 203h-4l-266 -203h-66z" />
    <glyph glyph-name="edieresis" unicode="&#xeb;" horiz-adv-x="1006" 
d="M618 111q162 0 261 129l20 -21q-124 -244 -383 -244q-195 0 -311 142q-117 142 -119 362q2 220 131 363q128 143 334 143q155 0 255 -88q101 -88 101 -240l-12 -110l-623 14v-39q0 -205 92 -308t254 -103zM723 694q-1 109 -49 164t-120 55q-124 0 -193 -85
q-70 -85 -80 -207l432 18q10 18 10 55zM646 1144q-29 30 -29 74t29 72t72 29q42 -1 72 -29t30 -72t-30 -74t-72 -30q-43 0 -72 30zM329 1114q-33 0 -62 30t-29 74t29 72t73 29q44 -1 72 -29q29 -28 29 -62t-8 -52q-7 -18 -21 -32t-32 -22t-51 -8z" />
    <glyph glyph-name="igrave" unicode="&#xec;" horiz-adv-x="614" 
d="M223 113v665q0 33 -13 49t-71 39l-57 23v41l264 55h62v-872q0 -24 9 -30t21 -9t33 -8l78 -19v-47h-469v47l78 19q65 12 65 47zM21 1433q0 28 19 48t42 20q36 0 69 -28q32 -28 45 -60l135 -299h-47l-209 211q-54 54 -54 108z" />
    <glyph glyph-name="iacute" unicode="&#xed;" horiz-adv-x="614" 
d="M223 113v665q0 33 -13 49t-71 39l-57 23v41l264 55h62v-872q0 -24 9 -30t21 -9t33 -8l78 -19v-47h-469v47l78 19q65 12 65 47zM536 1501q23 0 42 -20t19 -59t-53 -97l-209 -211h-47l135 299q21 51 73 79q16 8 40 9z" />
    <glyph glyph-name="icircumflex" unicode="&#xee;" horiz-adv-x="614" 
d="M223 113v665q0 33 -13 49t-71 39l-57 23v41l264 55h62v-872q0 -24 9 -30t21 -9t33 -8l78 -19v-47h-469v47l78 19q65 12 65 47zM284 1473h49l309 -359h-66l-266 203h-4l-266 -203h-66z" />
    <glyph glyph-name="idieresis" unicode="&#xef;" horiz-adv-x="614" 
d="M223 113v665q0 33 -13 49t-71 39l-57 23v41l264 55h62v-872q0 -24 9 -30t21 -9t33 -8l78 -19v-47h-469v47l78 19q65 12 65 47zM421 1144q-29 30 -29 74t29 72t72 29q43 -1 73 -29t29 -72q1 -44 -29 -74t-73 -30t-72 30zM104 1114q-33 0 -62 30t-29 74t29 72q28 28 72 29
q44 -1 73 -29t29 -62t-8 -52t-22 -32t-31 -22q-18 -8 -51 -8z" />
    <glyph glyph-name="eth" unicode="&#xf0;" horiz-adv-x="1186" 
d="M215 1427q288 0 459 -92l182 142l51 -72l-155 -121q192 -149 214.5 -389.5t22.5 -354.5q0 -235 -124.5 -396.5t-331.5 -161.5t-319 137t-112 365t112 354.5t298 126.5q187 0 274 -131q-23 234 -141 358l-186 -143l-56 67l175 135q-70 52 -148.5 70t-214.5 27v79zM795 756
q-104 104 -231 104t-202 -117t-75 -264q0 -331 96 -379.5t149 -48.5t96.5 25t105 112t61.5 416v152z" />
    <glyph glyph-name="ntilde" unicode="&#xf1;" horiz-adv-x="1241" 
d="M721 985q235 0 302 -197q21 -62 21 -139v-543q0 -22 20 -28t44 -12l76 -19v-47h-467v47l78 19q21 5 34 8q13 4 22 8t9 24v488q0 125 -32 176q-32 52 -74 75t-98 23q-97 0 -160 -47q-64 -47 -93 -110v-605q0 -22 19 -28t45 -12l76 -19v-47h-467v47l76 19q32 8 48 15t17 25
v672q0 33 -13 49t-71 39l-55 23v41l264 55h61v-211q108 211 318 211zM790 1096q-36 0 -62 8t-48 20q-24 12 -44 24t-37 22t-33 22t-46 30q-30 17 -64 17q-59 0 -85 -39q-25 -39 -25 -86h-49q-1 82 31 135q32 55 68 81t80 26t70 -8t46 -20t38 -28q18 -15 34 -26t31 -21
q14 -10 39 -23t60 -13q59 0 87 41t28 88h45q0 -180 -96 -232q-32 -18 -68 -18z" />
    <glyph glyph-name="ograve" unicode="&#xf2;" horiz-adv-x="1124" 
d="M80 475q0 225 137 368q137 142 347 142t345 -138t135 -361t-136 -367t-344 -144q-213 0 -349 138q-135 137 -135 362zM842 463q0 197 -75 322q-75 126 -203 126q-129 0 -204 -111t-75 -304t75 -323q74 -130 200 -130q131 0 207 112q75 111 75 308zM274 1433q0 28 19 48
t42 20q36 0 69 -28q32 -28 45 -60l135 -299h-47l-209 211q-54 54 -54 108z" />
    <glyph glyph-name="oacute" unicode="&#xf3;" horiz-adv-x="1124" 
d="M80 475q0 225 137 368q137 142 347 142t345 -138t135 -361t-136 -367t-344 -144q-213 0 -349 138q-135 137 -135 362zM842 463q0 197 -75 322q-75 126 -203 126q-129 0 -204 -111t-75 -304t75 -323q74 -130 200 -130q131 0 207 112q75 111 75 308zM789 1501q23 0 42 -20
t19 -59t-53 -97l-209 -211h-47l135 299q22 51 74 79q16 8 39 9z" />
    <glyph glyph-name="ocircumflex" unicode="&#xf4;" horiz-adv-x="1124" 
d="M80 475q0 225 137 368q137 142 347 142t345 -138t135 -361t-136 -367t-344 -144q-213 0 -349 138q-135 137 -135 362zM842 463q0 197 -75 322q-75 126 -203 126q-129 0 -204 -111t-75 -304t75 -323q74 -130 200 -130q131 0 207 112q75 111 75 308zM537 1473h49l309 -359
h-66l-266 203h-4l-266 -203h-66z" />
    <glyph glyph-name="otilde" unicode="&#xf5;" horiz-adv-x="1124" 
d="M80 475q0 225 137 368q137 142 347 142t345 -138t135 -361t-136 -367t-344 -144q-213 0 -349 138q-135 137 -135 362zM842 463q0 197 -75 322q-75 126 -203 126q-129 0 -204 -111t-75 -304t75 -323q74 -130 200 -130q131 0 207 112q75 111 75 308zM730 1096q-36 0 -60 8
q-26 8 -50 20t-44 24t-36 22t-32 22t-47 30q-30 18 -64 17q-59 0 -85 -39q-25 -39 -25 -86h-49q0 82 32 135q32 55 67 81q36 26 80 26q43 0 69 -8t46 -20t39 -28q19 -15 35 -26t30 -21t39 -23t60 -13q59 0 87 41t28 88h45q1 -180 -95 -232q-34 -18 -70 -18z" />
    <glyph glyph-name="odieresis" unicode="&#xf6;" horiz-adv-x="1124" 
d="M80 475q0 225 137 368q137 142 347 142t345 -138t135 -361t-136 -367t-344 -144q-213 0 -349 138q-135 137 -135 362zM842 463q0 197 -75 322q-75 126 -203 126q-129 0 -204 -111t-75 -304t75 -323q74 -130 200 -130q131 0 207 112q75 111 75 308zM674 1144
q-29 30 -29 74t29 72t72 29q42 -1 72 -29t30 -72t-30 -74t-72 -30q-43 0 -72 30zM357 1114q-33 0 -62 30t-29 74t29 72t73 29q44 -1 72 -29q29 -28 29 -62t-8 -52q-7 -18 -21 -32t-32 -22t-51 -8z" />
    <glyph glyph-name="divide" unicode="&#xf7;" 
d="M532 743q-37 0 -69.5 33.5t-32.5 71.5q0 59 34.5 92t69.5 33q58 0 91.5 -32.5t33.5 -67.5t-9 -57t-24.5 -38t-36 -25.5t-57.5 -9.5zM72 545h934v-94h-934v94zM463.5 48q-33.5 32 -33.5 69q0 60 33.5 94.5t69.5 34.5q59 0 92.5 -34.5t33.5 -70.5t-9 -56t-33.5 -44.5
t-72.5 -24.5q-47 0 -80.5 32z" />
    <glyph glyph-name="oslash" unicode="&#xf8;" horiz-adv-x="1124" 
d="M544 -25q-124 0 -231 62l-118 -191h-68l141 224q-83 66 -131.5 170.5t-48.5 225.5q0 229 134 374t341 145q128 0 236 -55l94 153h68l-115 -184q88 -65 139 -171.5t51 -228.5t-34.5 -214.5t-97 -161.5t-149.5 -108.5t-211 -39.5zM735 821q-70 90 -183 90
q-114 0 -186.5 -114t-72.5 -291t55 -293zM381 152q74 -109 191 -109t189.5 118.5t72.5 303.5t-62 299z" />
    <glyph glyph-name="ugrave" unicode="&#xf9;" horiz-adv-x="1190" 
d="M989 662v-515q0 -23 13 -31t42 -22l72 -28v-41l-309 -50v213q-22 -74 -103 -144q-81 -69 -218 -69q-136 0 -222 89t-86 258v489q0 22 -11 29t-50 22l-70 25v47l283 22h45q-13 -165 -13 -247v-326q0 -142 45 -214q45 -73 158 -73q165 0 242 154v516q0 39 -10 49
q-10 9 -23 15t-33 14l-88 35v39l289 38h62q-15 -90 -15 -294zM307 1433q0 28 19 48t42 20q36 0 69 -28q32 -28 45 -60l135 -299h-47l-209 211q-54 54 -54 108z" />
    <glyph glyph-name="uacute" unicode="&#xfa;" horiz-adv-x="1190" 
d="M989 662v-515q0 -23 13 -31t42 -22l72 -28v-41l-309 -50v213q-22 -74 -103 -144q-81 -69 -218 -69q-136 0 -222 89t-86 258v489q0 22 -11 29t-50 22l-70 25v47l283 22h45q-13 -165 -13 -247v-326q0 -142 45 -214q45 -73 158 -73q165 0 242 154v516q0 39 -10 49
q-10 9 -23 15t-33 14l-88 35v39l289 38h62q-15 -90 -15 -294zM822 1501q23 0 42 -20t19 -59t-53 -97l-209 -211h-47l135 299q21 51 73 79q16 8 40 9z" />
    <glyph glyph-name="ucircumflex" unicode="&#xfb;" horiz-adv-x="1190" 
d="M989 662v-515q0 -23 13 -31t42 -22l72 -28v-41l-309 -50v213q-22 -74 -103 -144q-81 -69 -218 -69q-136 0 -222 89t-86 258v489q0 22 -11 29t-50 22l-70 25v47l283 22h45q-13 -165 -13 -247v-326q0 -142 45 -214q45 -73 158 -73q165 0 242 154v516q0 39 -10 49
q-10 9 -23 15t-33 14l-88 35v39l289 38h62q-15 -90 -15 -294zM570 1473h49l309 -359h-66l-266 203h-4l-266 -203h-66z" />
    <glyph glyph-name="udieresis" unicode="&#xfc;" horiz-adv-x="1190" 
d="M989 662v-515q0 -23 13 -31t42 -22l72 -28v-41l-309 -50v213q-22 -74 -103 -144q-81 -69 -218 -69q-136 0 -222 89t-86 258v489q0 22 -11 29t-50 22l-70 25v47l283 22h45q-13 -165 -13 -247v-326q0 -142 45 -214q45 -73 158 -73q165 0 242 154v516q0 39 -10 49
q-10 9 -23 15t-33 14l-88 35v39l289 38h62q-15 -90 -15 -294zM707 1144q-29 30 -29 74t29 72t72 29q43 -1 73 -29t29 -72q1 -44 -29 -74t-73 -30t-72 30zM390 1114q-33 0 -62 30t-29 74t29 72q28 28 72 29q44 -1 73 -29t29 -62t-8 -52t-22 -32t-31 -22q-18 -8 -51 -8z" />
    <glyph glyph-name="yacute" unicode="&#xfd;" horiz-adv-x="877" 
d="M-15 -452q-46 37 -46 96q0 58 32 90q31 32 69 33q68 0 98 -53t1 -124q84 0 170 217l82 193l-334 817q-20 46 -49 57l-39 13v47h396v-47l-76 -21q-31 -9 -39 -20t0 -31l233 -586l230 578q11 28 -1 40q-13 11 -59 21l-73 19v47h319v-47l-37 -15q-29 -12 -40 -33t-19 -42
l-393 -959q-64 -157 -112 -216q-91 -111 -180 -111q-87 0 -133 37zM712 1501q23 0 42 -20t19 -59t-53 -97l-209 -211h-47l135 299q21 51 73 79q16 8 40 9z" />
    <glyph glyph-name="thorn" unicode="&#xfe;" horiz-adv-x="1186" 
d="M381 803q99 182 335 182q74 0 146.5 -34t150 -129.5t77.5 -322.5q0 -226 -131 -375t-343 -149q-108 0 -163 37.5t-72 59.5v-445q0 -20 9.5 -25t53.5 -16l121 -26v-47h-510v47l78 18q55 11 60.5 22.5t5.5 22.5v1618q0 32 -14.5 47.5t-73.5 40.5l-54 23v41l262 55h74
q-12 -112 -12 -295v-350zM622 862q-162 0 -241 -114v-627q94 -58 181 -58q158 0 243.5 112.5t85.5 309.5q0 272 -108 324.5t-161 52.5z" />
    <glyph glyph-name="ydieresis" unicode="&#xff;" horiz-adv-x="877" 
d="M-15 -452q-46 37 -46 96q0 58 32 90q31 32 69 33q68 0 98 -53t1 -124q84 0 170 217l82 193l-334 817q-20 46 -49 57l-39 13v47h396v-47l-76 -21q-31 -9 -39 -20t0 -31l233 -586l230 578q11 28 -1 40q-13 11 -59 21l-73 19v47h319v-47l-37 -15q-29 -12 -40 -33t-19 -42
l-393 -959q-64 -157 -112 -216q-91 -111 -180 -111q-87 0 -133 37zM583 1144q-29 30 -29 74t29 72t72 29q43 -1 73 -29t29 -72q1 -44 -29 -74t-73 -30t-72 30zM266 1114q-33 0 -62 30t-29 74t29 72q28 28 72 29q44 -1 73 -29t29 -62t-8 -52t-22 -32t-31 -22q-18 -8 -51 -8z
" />
    <glyph glyph-name="dotlessi" unicode="&#x131;" horiz-adv-x="614" 
d="M223 113v665q0 33 -13.5 49t-70.5 39l-57 23v41l264 55h62v-872q0 -24 9 -30t21.5 -9t32.5 -8l78 -19v-47h-469v47l78 19q65 12 65 47z" />
    <glyph glyph-name="Lslash" unicode="&#x141;" horiz-adv-x="1165" 
d="M664 72q133 0 196 25.5t78 37.5q42 46 98 197l41 108h56l-101 -440h-946v59l117 25q31 6 43 12.5t12 28.5v393l-174 -98v102l174 99v522q0 21 -8.5 27t-44.5 14l-121 26v60h582v-58l-140 -26q-48 -8 -50.5 -19.5t-2.5 -21.5v-385l217 125v-105l-217 -127v-561
q44 -20 166 -20h25z" />
    <glyph glyph-name="lslash" unicode="&#x142;" horiz-adv-x="602" 
d="M395 1153v-379l226 133v-104l-226 -133v-564q0 -25 26.5 -31t37.5 -9l76 -19v-47h-467v47l75 19q11 3 38.5 9t27.5 31v453l-184 -108v102l184 109v573q0 44 -10 60t-47 30l-78 33v41l272 49h62q-13 -121 -13 -295z" />
    <glyph glyph-name="OE" unicode="&#x152;" horiz-adv-x="2126" 
d="M66 672q0 110 49 228.5t136.5 208t209.5 142t268 52.5q269 0 445 -191v158h612q98 0 164 22l37 -407h-56q-48 186 -96 250q-59 38 -155 49.5t-144 11.5h-18q-86 0 -150 -12v-482h236q62 38 85 101.5t27 87.5h41v-467h-41q-31 142 -112 197h-236v-535q95 -14 180 -14h47
q116 0 181.5 23.5t87.5 39.5q65 72 121 264h55l-60 -399h-806v172q-173 -199 -445 -199q-185 0 -377 119.5t-239 294.5t-47 285zM1153 629q0 259 -107 429.5t-319 170.5t-317 -170.5t-105 -409.5t105.5 -419.5t317.5 -180.5q210 0 284 126t107.5 225.5t33.5 228.5z" />
    <glyph glyph-name="oe" unicode="&#x153;" horiz-adv-x="1753" 
d="M563 -25q-210 0 -342.5 140.5t-132.5 360.5t134 364.5t341 144.5q252 0 371 -178q59 81 152.5 129.5t190.5 48.5q176 0 274 -88.5t98 -239.5q0 -21 -3 -42t-4.5 -35t-3.5 -20t-2 -8.5v-4.5l-608 14v-39q0 -196 95 -303.5t252 -107.5t251 129l21 -21q-124 -244 -379 -244
q-221 0 -342 181q-121 -181 -363 -181zM1464 694q0 219 -174 219q-110 0 -175.5 -84.5t-78.5 -207.5l420 18q8 24 8 55zM836 468q0 187 -72.5 315t-199.5 128t-199 -114t-72 -300t70.5 -320t196.5 -134q128 0 202 119t74 306z" />
    <glyph glyph-name="Scaron" unicode="&#x160;" horiz-adv-x="1063" 
d="M756 295q0 147 -138 221q-38 20 -79 37l-127 53q-295 118 -295 357q0 151 125 245q125 95 292 95t287 -70l43 59h43l13 -401h-56q-26 138 -90 237q-102 107 -243 107q-142 -1 -199 -119q-19 -40 -19 -89q0 -91 41 -138t135 -88l205 -92q122 -57 172 -110
q103 -108 103 -245q0 -173 -134 -276t-333 -103q-200 0 -320 64l-37 -64h-43q6 87 1 246q-4 159 -9 223h62q38 -205 77 -282q90 -117 235 -117q137 0 213 70q75 70 75 180zM197 1760h66l266 -203h4l266 203h66l-309 -359h-49z" />
    <glyph glyph-name="scaron" unicode="&#x161;" horiz-adv-x="903" 
d="M591 313q-32 33 -91 58l-162 61q-205 76 -205 270q0 125 103 204t235 79t217 -53l27 53h49v-311h-53q-12 83 -58 170q-39 50 -113 72q-26 8 -56 8q-68 0 -122 -46q-53 -46 -53 -117t24 -109t83 -62l190 -74q203 -78 203 -260q0 -60 -30 -116q-90 -165 -331 -165
q-156 0 -245 58l-27 -58h-51l-10 361h53q32 -126 92 -217q80 -74 172 -74q135 0 177 91q14 30 14 87t-32 90zM144 1473h66l266 -203h4l266 203h66l-309 -359h-49z" />
    <glyph glyph-name="Ydieresis" unicode="&#x178;" horiz-adv-x="1237" 
d="M522 129v397l-405 613q-23 34 -37 40q-13 7 -23 11l-57 20v60h494v-60l-97 -20q-31 -6 -39 -18t2 -25l328 -494l297 486q17 28 3 38t-60 19l-84 16v58h395v-58l-55 -14q-47 -11 -76 -55l-375 -578v-436q0 -22 7 -27t46 -14l148 -29v-59h-612v59l145 29q27 6 41 14t14 27z
M752 1431q-29 30 -29 74q0 45 29 73t72 28q42 0 72 -28t30 -74q0 -44 -30 -74t-72 -29q-43 0 -72 30zM435 1401q-33 -1 -62 29t-29 74t29 74q29 28 73 28t72 -28q29 -28 29 -62t-8 -52q-7 -18 -21 -33q-14 -14 -32 -22t-51 -8z" />
    <glyph glyph-name="Zcaron" unicode="&#x17d;" horiz-adv-x="1153" 
d="M297 1270h799v-35l-752 -1147h293q219 0 293 31q91 106 145 264h55l-67 -383h-993v39l753 1147h-282q-226 0 -283 -21q-63 -82 -106 -256h-56l23 381q70 -20 178 -20zM303 1760h66l266 -203h4l266 203h66l-309 -359h-49z" />
    <glyph glyph-name="zcaron" unicode="&#x17e;" horiz-adv-x="920" 
d="M305 864q-52 0 -72 -37l-110 -200h-43l14 229l-12 78h752v-41l-555 -811h331q22 0 30 6t19 25l146 229h45q-30 -140 -38 -310l-1 -32h-756v41l559 823h-309zM146 1473h66l266 -203h4l266 203h66l-309 -359h-49z" />
    <glyph glyph-name="florin" unicode="&#x192;" 
d="M-49.5 -271q34.5 29 66.5 29q67 0 103 -46.5t1 -135.5q132 0 197.5 107t89.5 352l63 622h-213l43 93h178l23 215q28 259 159 372t310 113q128 0 163 -50t35 -82q0 -55 -33.5 -85.5t-64.5 -30.5q-67 0 -103.5 46t-2.5 136q-159 0 -209 -107.5t-58 -184.5l-34 -342h272v-93
h-283l-55 -581q-41 -426 -217 -494.5t-289 -68.5t-144.5 49.5t-31.5 93.5t34.5 73z" />
    <glyph glyph-name="circumflex" unicode="&#x2c6;" horiz-adv-x="1124" 
d="M537 1473h49l309 -359h-66l-266 203h-4l-266 -203h-66z" />
    <glyph glyph-name="caron" unicode="&#x2c7;" horiz-adv-x="1124" 
d="M227 1473h66l266 -203h4l266 203h66l-309 -359h-49z" />
    <glyph glyph-name="breve" unicode="&#x2d8;" horiz-adv-x="1124" 
d="M313 1197q-80 83 -80 192h70q0 -73 59.5 -117.5t188.5 -44.5q187 0 217.5 63t30.5 99h69q0 -110 -80.5 -192.5t-237.5 -82.5t-237 83z" />
    <glyph glyph-name="dotaccent" unicode="&#x2d9;" horiz-adv-x="1124" 
d="M479.5 1149q-33.5 35 -33.5 71q0 37 9.5 58.5t25 38t36.5 26t56 9.5t69 -35.5t34 -71.5q0 -37 -9.5 -59t-34.5 -47t-72 -25t-80.5 35z" />
    <glyph glyph-name="ring" unicode="&#x2da;" horiz-adv-x="1124" 
d="M562 1114q-75 0 -131 53t-56 129t55.5 129.5t131.5 53.5q75 0 130.5 -53.5t55.5 -129.5t-55.5 -129t-130.5 -53zM649 1196.5q33 41.5 33 84.5q0 42 -8.5 67.5t-24 45t-38 31t-63 11.5t-74.5 -41.5t-34 -83.5q0 -43 8.5 -68.5t34 -56.5t79.5 -31t87 41.5z" />
    <glyph glyph-name="ogonek" unicode="&#x2db;" horiz-adv-x="1124" 
d="M550 -319q63 0 99 28v-43q-9 -18 -63.5 -27.5t-80.5 -9.5q-75 0 -128 34t-53 107t85 136.5t185 103.5h51q-25 -20 -125 -91.5t-100 -142.5q0 -52 33.5 -73.5t96.5 -21.5z" />
    <glyph glyph-name="tilde" unicode="&#x2dc;" horiz-adv-x="1124" 
d="M730 1096q-36 0 -61 8t-48.5 19.5t-44 24t-36.5 22.5t-32.5 22t-46.5 29.5t-64 17.5q-59 0 -84.5 -39t-25.5 -86h-49q0 82 31.5 135.5t67.5 80t80 26.5t69.5 -8t46 -20.5t39 -27.5t34.5 -26t30 -21t39 -23t60 -13q59 0 87 41t28 88h45q0 -179 -64.5 -214.5t-100.5 -35.5z
" />
    <glyph glyph-name="hungarumlaut" unicode="&#x2dd;" horiz-adv-x="1124" 
d="M1065 1501q22 0 40.5 -20t18.5 -41q0 -33 -17.5 -55t-49.5 -48l-316 -223h-45l254 299q10 12 22 27.5t25.5 29t29.5 22.5t38 9zM718 1501q23 0 41.5 -20t18.5 -41q0 -33 -17.5 -55t-49.5 -48l-316 -223h-47l256 299q47 62 69 75t45 13z" />
    <glyph glyph-name="Delta" unicode="&#x394;" horiz-adv-x="1253" 
d="M649 1409l563 -1409h-1171zM1034 72l-422 1032l-448 -1032h870z" />
    <glyph glyph-name="Omega" unicode="&#x3a9;" horiz-adv-x="1479" 
d="M1155 770q0 322 -158 387.5t-262 65.5q-196 0 -303.5 -130.5t-107.5 -326.5q0 -290 108.5 -369.5t194.5 -93.5v-303h-527l-34 276h36q25 -75 53.5 -111t94.5 -36h307v121q-201 16 -339 158t-138 331q0 188 92 311.5t243.5 188t321.5 64.5q268 0 465 -145t197 -406
q0 -205 -138.5 -345.5t-340.5 -156.5v-121h288q89 0 113.5 58.5t36.5 88.5h35l-35 -276h-504v303q301 52 301 467z" />
    <glyph glyph-name="pi" unicode="&#x3c0;" horiz-adv-x="1237" 
d="M223 102v727q0 24 -15 28t-30 7l-106 21v49h1085v-49l-104 -21q-29 -6 -38 -11t-9 -24v-727q0 -18 8.5 -23t36.5 -11l104 -21v-47h-473v47l92 21q15 4 24.5 6.5t16 6.5t6.5 21v752h-411v-752q0 -18 8 -23t37 -11l92 -21v-47h-473v47l104 21q40 8 42.5 16.5t2.5 17.5z" />
    <glyph glyph-name="endash" unicode="&#x2013;" horiz-adv-x="999" 
d="M57 662h883v-101h-883v101z" />
    <glyph glyph-name="emdash" unicode="&#x2014;" horiz-adv-x="2001" 
d="M57 662h1889v-101h-1889v101z" />
    <glyph glyph-name="quoteleft" unicode="&#x2018;" horiz-adv-x="543" 
d="M150 928q0 195 167 362h95q-87 -80 -112.5 -153t-25.5 -107q79 0 100 -50t21 -76q0 -53 -35.5 -90.5t-70.5 -37.5q-139 0 -139 152z" />
    <glyph glyph-name="quoteright" unicode="&#x2019;" horiz-adv-x="543" 
d="M272 1036q-49 0 -84.5 37.5t-35.5 76.5q0 65 35.5 102.5t71.5 37.5q138 0 138 -150q0 -129 -51.5 -210.5t-79 -111.5t-37.5 -42h-90q87 87 110 156.5t23 103.5z" />
    <glyph glyph-name="quotesinglbase" unicode="&#x201a;" horiz-adv-x="543" 
d="M272 -27q-48 0 -84 38t-36 77q0 66 35.5 103.5t71.5 37.5q138 1 138 -149q0 -128 -51.5 -211t-79 -113.5t-37.5 -42.5h-90q86 86 109.5 156.5t23.5 103.5z" />
    <glyph glyph-name="quotedblleft" unicode="&#x201c;" horiz-adv-x="915" 
d="M512 928q0 194 168 362h90q-85 -89 -108 -157.5t-23 -102.5q50 0 85.5 -37t35.5 -76q0 -66 -36.5 -103.5t-72.5 -37.5q-139 0 -139 152zM147 928q0 194 168 362h91q-88 -88 -111 -157t-23 -103q50 0 85.5 -37t35.5 -76q0 -67 -36 -104t-73 -37q-137 0 -137 152z" />
    <glyph glyph-name="quotedblright" unicode="&#x201d;" horiz-adv-x="915" 
d="M649 1036q-49 0 -75 27.5t-36 50.5t-10 62t36 76.5t73 37.5q137 0 137 -148q0 -128 -51 -211t-78.5 -113t-36.5 -42h-92q86 86 109.5 156.5t23.5 103.5zM283 1036q-48 0 -74 27.5t-35.5 50.5t-9.5 62.5t35.5 76.5t72.5 37q138 0 138 -148q0 -129 -51.5 -211.5t-79 -112.5
t-37.5 -42h-90q83 83 107 155t24 105z" />
    <glyph glyph-name="quotedblbase" unicode="&#x201e;" horiz-adv-x="915" 
d="M639 -23q-80 0 -100.5 50.5t-20.5 76.5q0 54 35.5 90.5t71.5 36.5q139 0 139 -147q0 -129 -51 -212.5t-78.5 -113t-36.5 -41.5h-92q86 86 109.5 156t23.5 104zM272 -23q-47 0 -82.5 37t-35.5 76q0 67 35.5 104t71.5 37q138 0 138 -147q0 -130 -51.5 -213t-79 -112.5
t-37.5 -41.5h-92q85 81 109 153.5t24 106.5z" />
    <glyph glyph-name="dagger" unicode="&#x2020;" horiz-adv-x="918" 
d="M416 1016h-365v88h365v428h86v-428h364v-88h-364v-1491h-86v1491z" />
    <glyph glyph-name="daggerdbl" unicode="&#x2021;" horiz-adv-x="918" 
d="M416 250h-365v96h365v670h-365v88h365v428h86v-428h364v-88h-364v-670h364v-96h-364v-725h-86v725z" />
    <glyph glyph-name="bullet" unicode="&#x2022;" horiz-adv-x="805" 
d="M233.5 479.5q-69.5 69.5 -69.5 168.5t70 169t168.5 70t168.5 -70t70 -169t-69.5 -168.5t-169 -69.5t-169 69.5z" />
    <glyph glyph-name="ellipsis" unicode="&#x2026;" horiz-adv-x="1665" 
d="M1305 11.5q-37 38.5 -37 77.5q0 40 10 63t27 40.5t40 27t61.5 9.5t74 -37.5t35.5 -76.5t-10 -62.5t-36.5 -51.5t-77 -28t-87.5 38.5zM834 -27q-50 0 -86.5 38t-36.5 78q0 67 35.5 103.5t74.5 36.5q65 0 99 -37t34 -76q0 -40 -9 -63.5t-35 -51.5t-76 -28zM188 11
q-36 38 -36 78q0 66 35 103t75 37q66 0 99.5 -37t33.5 -76q0 -40 -9 -63.5t-34.5 -51.5t-76.5 -28t-87 38z" />
    <glyph glyph-name="perthousand" unicode="&#x2030;" horiz-adv-x="2210" 
d="M137 725q-94 96 -94 236q0 139 93 234t226.5 95t226.5 -95t93 -234t-95 -235.5t-226 -96.5q-130 0 -224 96zM287 33l846 1263l67 -61l-840 -1260zM1526 311q0 140 93.5 235t225.5 95t226 -95.5t94 -235t-95.5 -235t-225.5 -95.5t-224 95.5t-94 235.5zM1116 -20
q-64 0 -122.5 25.5t-102 69.5t-69 105t-25.5 131t25 130.5t68.5 104.5t101.5 69.5t124 25.5t124.5 -25.5t102 -69.5t68.5 -104.5t25 -130.5t-26 -131t-70 -105t-102 -69.5t-122 -25.5zM515 782q58 69 58 176t-58 175.5t-151 68.5q-94 0 -154 -68t-60 -176q0 -107 60.5 -176
t153.5 -69t151 69zM2056 309q0 107 -58 175.5t-152 68.5t-154 -68t-60 -175t61 -177t153 -70q93 0 151.5 69.5t58.5 176.5zM1327 309q0 107 -58 175.5t-152 68.5t-154 -68t-60 -175t60.5 -177t152.5 -70q93 0 152 69.5t59 176.5z" />
    <glyph glyph-name="guilsinglleft" unicode="&#x2039;" horiz-adv-x="440" 
d="M20 537v49l338 327v-65l-184 -285v-4l184 -285v-65z" />
    <glyph glyph-name="guilsinglright" unicode="&#x203a;" horiz-adv-x="440" 
d="M82 274l184 285v4l-184 285v65l338 -327v-49l-338 -328v65z" />
    <glyph glyph-name="Euro" unicode="&#x20ac;" 
d="M379 656v-46q0 -18 2 -37h362l-45 -84h-313q18 -212 82 -323t207 -111q195 0 235 96.5t52 159.5h79q0 -100 -54.5 -188t-139.5 -117t-193 -29t-201 38.5t-178.5 133.5t-123.5 340h-187l41 84h133q-2 15 -2 31v33q0 67 10 129h-127l41 86h105q129 451 526 451
q242 0 289 -135t51 -216h-74q-19 137 -56 185.5t-83.5 70t-122.5 21.5q-137 0 -202 -96t-101 -281h467l-45 -86h-428q-6 -84 -6 -110z" />
    <glyph glyph-name="trademark" unicode="&#x2122;" horiz-adv-x="2179" 
d="M754 1270q71 0 104 14l10 -235h-39q-17 71 -63 139q-54 31 -143 31h-64v-603q0 -12 4 -15t29 -7l90 -16v-46h-381v46l88 16q23 5 29 7.5t6 14.5v603h-53q-101 0 -156 -29q-43 -57 -63 -141h-39l10 237q40 -16 119 -16h512zM1087 1186q0 15 -6 18.5t-32 7.5l-70 13v47h235
l289 -545l291 543h238v-41l-76 -17q-22 -6 -27.5 -9t-5.5 -17v-570q0 -12 5.5 -15.5t27.5 -8.5l76 -14v-46h-344v46l63 14q22 5 28.5 8.5t6.5 15.5v519l-318 -600h-8l-309 579v-375q0 -60 6 -114q-5 -29 21 -33l94 -17v-43h-303v43l90 15q19 0 24 33l4 114v449z" />
    <glyph glyph-name="partialdiff" unicode="&#x2202;" horiz-adv-x="1186" 
d="M532 -18q-205 0 -317.5 137t-112.5 365t112 354.5t298 126.5q187 0 274 -131q-35 317 -169 400.5t-235 95.5t-167 18v79q444 0 567 -153.5t150 -239t42 -186.5t15 -262q0 -160 -30.5 -260t-89.5 -176.5t-145 -122t-192 -45.5zM795 756q-104 104 -231 104t-202 -117
t-75 -264q0 -331 96 -379.5t149 -48.5t96.5 25t105 112t61.5 416v152z" />
    <glyph glyph-name="product" unicode="&#x220f;" horiz-adv-x="1604" 
d="M258 125v1018q0 21 -8.5 27t-44.5 14l-121 26v60h1436v-60l-119 -24q-35 -6 -45 -14t-10 -29v-1018q0 -22 9.5 -28.5t43.5 -12.5l121 -29v-55h-547v55l102 25q50 14 52.5 24t2.5 21v1049h-659v-1049q0 -23 9 -30t44 -15l107 -21v-59h-547v59l119 25q50 8 52.5 19t2.5 22z
" />
    <glyph glyph-name="summation" unicode="&#x2211;" horiz-adv-x="1186" 
d="M901 1270q108 0 178 20l23 -383h-55q-42 167 -111 258q-51 19 -146 20t-131 1h-260l396 -492l-514 -526h348q210 0 284 31q64 71 103 153t51 117h55l-73 -469h-1026v31l587 581l-506 623v35h797z" />
    <glyph glyph-name="minus" unicode="&#x2212;" 
d="M74 545h934v-105h-934v105z" />
    <glyph glyph-name="fraction" unicode="&#x2215;" horiz-adv-x="20" 
d="M565 1186h113l-1227 -1483h-113z" />
    <glyph glyph-name="radical" unicode="&#x221a;" horiz-adv-x="1124" 
d="M217 827l-211 -79l-29 59l345 145l241 -743l586 1325h78l-676 -1557h-39z" />
    <glyph glyph-name="infinity" unicode="&#x221e;" horiz-adv-x="1434" 
d="M383 1004q218 0 305 -267q40 121 128.5 189.5t202.5 68.5t233.5 -58t119.5 -302q0 -164 -89.5 -255t-244.5 -91q-183 0 -239 98t-80 154q-18 -37 -41.5 -79t-88 -100.5t-212.5 -58.5t-227.5 105.5t-79.5 266.5q0 162 92 245.5t221 83.5zM376 420q72 0 120.5 24.5t81 65
t55 93.5t47.5 110q-59 78 -121 112.5t-176 34.5q-190 0 -233.5 -75t-43.5 -123t16.5 -90t49.5 -75.5t82.5 -55t121.5 -21.5zM1248 473q85 70 85 162q0 154 -102.5 190.5t-176.5 36.5q-136 0 -204.5 -81t-118.5 -226q70 -82 130.5 -117t180.5 -35q121 0 206 70z" />
    <glyph glyph-name="integral" unicode="&#x222b;" horiz-adv-x="1024" 
d="M8.5 -271q37.5 29 69.5 29q64 0 101 -46.5t1 -135.5q139 0 190.5 110t51.5 390v827q0 381 157.5 464t279.5 83t158 -50t36 -82q0 -56 -35.5 -86t-66.5 -30q-66 0 -102.5 45.5t-4.5 136.5q-159 0 -192.5 -119t-33.5 -214v-914q0 -340 -113 -482t-345 -142
q-124 0 -156.5 49.5t-32.5 93.5t37.5 73z" />
    <glyph glyph-name="approxequal" unicode="&#x2248;" horiz-adv-x="1247" 
d="M708.5 921.5q-69.5 26.5 -96.5 41.5q-132 75 -180 75q-73 0 -109 -40t-36 -85h-49q0 77 56.5 158.5t143.5 81.5t203 -68.5t186 -68.5t108 41.5t38 85.5h45q0 -174 -75 -211t-120 -37t-114.5 26.5zM834 494q-99 0 -230 71.5t-175 71.5q-69 0 -104.5 -40t-35.5 -85h-51
q0 76 58 158t153 82q60 0 106.5 -22.5t71.5 -36.5t43 -24q105 -57 155 -57q75 0 112.5 43t37.5 86h45q0 -173 -75 -210t-111 -37z" />
    <glyph glyph-name="notequal" unicode="&#x2260;" 
d="M63 262v92h349l200 291h-549v94h613l211 299l43 -34l-187 -265h254v-94h-315l-203 -291h518v-92h-579l-244 -344l-43 31l219 313h-287z" />
    <glyph glyph-name="lessequal" unicode="&#x2264;" 
d="M49 494l930 438l35 -80l-664 -317l-123 -46l117 -40l672 -314l-35 -80zM63 -223h953v-80h-953v80z" />
    <glyph glyph-name="greaterequal" unicode="&#x2265;" 
d="M72 135l669 314l117 40l-123 46l-663 317l34 80l930 -438l-930 -439zM66 -223h952v-80h-952v80z" />
    <glyph glyph-name="lozenge" unicode="&#x25ca;" horiz-adv-x="1012" 
d="M51 657l457 652l453 -652l-453 -669zM877 657l-369 510l-371 -510l371 -526z" />
    <glyph glyph-name="fi" unicode="&#xfb01;" horiz-adv-x="1233" 
d="M829 1346q-37 40 -118 40q-155 0 -233.5 -104t-78.5 -278v-66h353l221 47h61v-879q0 -20 9 -25t21.5 -7.5t33.5 -7.5l78 -19v-47h-469v47l77 19q11 3 38.5 9t27.5 31v680q0 36 -8 49t-31 13h-412v-727q0 -21 10.5 -27.5t53.5 -15.5l127 -31v-47h-518v47l78 19
q11 3 38 10.5t27 29.5v742h-145l34 90h113v25q0 213 129 348t344 135q129 0 227.5 -53t98.5 -137q0 -85 -46 -101t-66 -16t-46.5 14t-56 59t27.5 134z" />
    <glyph glyph-name="fl" unicode="&#xfb02;" horiz-adv-x="1210" 
d="M1010 1153v-1047q0 -20 9 -24t21.5 -6.5t32.5 -7.5l78 -21v-47h-465v47l76 19q21 5 34 8t22 7.5t9 24.5v1065q0 95 -49.5 152t-114.5 57q-123 0 -193.5 -89.5t-70.5 -233.5v-119h226v-90h-226v-727q0 -22 15 -29.5t49 -15.5l127 -29v-47h-518v47l78 19q34 8 49.5 14
t15.5 26v742h-145l34 90h113v37q0 312 171.5 392.5t274.5 80.5t179 -39l123 39h61q-16 -112 -16 -295z" />
    </font>
</defs>
</svg>
